<svg width="47" height="47" viewBox="0 0 47 47" fill="none" xmlns="http://www.w3.org/2000/svg">
<path d="M36.6229 32.6248C36.6227 32.6247 36.6225 32.6245 36.6223 32.6244C35.8902 32.1496 35.3011 31.9242 35.1616 31.8741L30.9132 30.1037L27.918 28.1271C27.8892 28.108 27.8591 28.0921 27.8288 28.0775V26.7969C30.0905 25.6677 31.7289 23.4722 32.0825 20.8727C33.9061 20.7251 35.3451 19.1949 35.3451 17.334C35.3451 16.4132 34.9928 15.5732 34.4161 14.9416V10.3969C34.4163 4.66392 29.7524 0 24.0196 0H23.2148C17.4824 0 12.8188 4.66392 12.8188 10.3966V14.8906C12.2138 15.5277 11.8414 16.3879 11.8414 17.3337C11.8414 19.1946 13.2804 20.7248 15.104 20.8724C15.4577 23.472 17.0962 25.6675 19.358 26.7966V27.9943L16.2359 30.0544C16.1936 30.0637 16.1515 30.0762 16.1101 30.0935L11.8384 31.8736C11.6248 31.9501 10.3695 32.4325 9.12313 33.6095C7.88938 34.7746 6.4187 36.8709 6.4187 40.2418V46.2531C6.4187 46.6653 6.75266 46.9995 7.16492 46.9995H15.9796C16.3918 46.9995 16.7258 46.6656 16.7258 46.2533C16.7258 45.8412 16.3919 45.5071 15.9796 45.5071H13.6809V39.9685C13.6809 39.5564 13.347 39.2223 12.9347 39.2223C12.5225 39.2223 12.1885 39.5563 12.1885 39.9685V45.5071H7.91123V40.242C7.91123 34.8662 12.1653 33.3394 12.3437 33.2779C12.3604 33.2722 12.3769 33.2662 12.3931 33.2594L15.9514 31.7765L19.7977 45.5072H18.315C17.9029 45.5072 17.5688 45.8412 17.5688 46.2534C17.5688 46.6657 17.9028 46.9996 18.315 46.9996H20.7789C20.7797 46.9996 20.7804 46.9998 20.7813 46.9998C20.7823 46.9998 20.7834 46.9996 20.7842 46.9996H26.4052H26.4072H26.4155C26.4165 46.9996 26.4175 46.9998 26.4183 46.9998C26.4191 46.9998 26.4199 46.9996 26.4208 46.9996H39.8348C40.247 46.9996 40.581 46.664 40.581 46.2519V40.2419C40.5809 35.8499 38.1014 33.5844 36.6229 32.6248ZM29.7082 31.0964L27.4606 35.716L24.6725 33.664L27.6201 30.6043C27.7838 30.4345 27.8503 30.2072 27.8222 29.9903C27.8261 29.9592 27.8289 29.9276 27.8289 29.8955V29.8564L29.7082 31.0964ZM25.1745 35.8862L24.5881 37.4477H22.5784V37.4478L21.9187 35.873L23.5375 34.6816L25.1745 35.8862ZM20.8392 30.0206C20.846 29.9798 20.8505 29.9382 20.8505 29.8953V28.4038C20.8505 28.4034 20.8505 28.4031 20.8505 28.4027V27.3594C21.4826 27.5254 22.1453 27.6144 22.8288 27.6144H24.3586C25.0419 27.6144 25.7046 27.5254 26.3366 27.3595V29.7855L23.5586 32.6692L20.8392 30.0206ZM33.8529 17.3338C33.8528 18.3453 33.119 19.187 32.1562 19.3589V15.3084C33.119 15.4803 33.8529 16.3221 33.8529 17.3338ZM15.0306 19.3589C14.0678 19.187 13.3339 18.3454 13.3339 17.3338C13.3339 16.322 14.0677 15.4803 15.0306 15.3083V19.3589ZM15.7798 13.0647C15.7787 13.0647 15.7776 13.0647 15.7766 13.0647C15.7509 13.0647 15.7255 13.066 15.7005 13.0686C15.6926 13.0694 15.685 13.071 15.6771 13.0721C15.6602 13.0744 15.6431 13.0766 15.6265 13.08C15.6157 13.0822 15.6055 13.0855 15.5949 13.088C15.5816 13.0914 15.5681 13.0942 15.5551 13.0983C15.5429 13.1021 15.5313 13.1069 15.5194 13.1113C15.5085 13.1152 15.4973 13.1187 15.4867 13.1232C15.4731 13.129 15.4601 13.1358 15.4468 13.1423C15.4385 13.1465 15.4298 13.1501 15.4215 13.1545C15.4086 13.1615 15.3964 13.1695 15.384 13.1772C15.376 13.1821 15.3677 13.1865 15.36 13.1918C15.3481 13.1997 15.3371 13.2087 15.3258 13.2172C15.3181 13.2231 15.3101 13.2284 15.3025 13.2345C15.2922 13.2429 15.2829 13.2522 15.2732 13.2611C15.2653 13.2682 15.257 13.2751 15.2495 13.2825C15.2405 13.2915 15.2322 13.3013 15.2238 13.3107C15.2163 13.319 15.2084 13.3269 15.2014 13.3354C15.1935 13.3449 15.1866 13.3551 15.1792 13.3649C15.1722 13.3743 15.1648 13.3832 15.1582 13.3929C15.1518 13.4024 15.1462 13.4126 15.1401 13.4224C15.1337 13.4331 15.1267 13.4434 15.1208 13.4543C15.1155 13.464 15.1111 13.4743 15.1063 13.4842C15.1006 13.496 15.0944 13.5075 15.0894 13.5195C15.0852 13.5292 15.082 13.5395 15.0784 13.5494C15.0736 13.5623 15.0684 13.5747 15.0642 13.5879C15.061 13.5979 15.0588 13.6084 15.0561 13.6187C15.0526 13.6321 15.0486 13.6455 15.0457 13.6592C15.0434 13.67 15.0423 13.6813 15.0405 13.6922C15.0383 13.7057 15.0358 13.7192 15.0343 13.733C15.0331 13.7446 15.033 13.7564 15.0324 13.7681C15.0317 13.7787 15.0308 13.7893 15.0305 13.8001C14.7821 13.8253 14.5415 13.8768 14.3108 13.9508V10.3965C14.3108 5.48697 18.3049 1.49253 23.2144 1.49253H24.0192C28.9291 1.49253 32.9235 5.48697 32.9235 10.3968V13.9675C32.678 13.8848 32.4212 13.8275 32.1552 13.8004C32.1552 13.7973 32.1549 13.7942 32.1548 13.7911C32.1544 13.7747 32.1538 13.7582 32.1523 13.7421C32.1514 13.7323 32.1498 13.7226 32.1485 13.7128C32.1466 13.6986 32.1448 13.6843 32.1421 13.6702C32.1398 13.6584 32.137 13.6468 32.134 13.6351C32.1313 13.6236 32.1285 13.6121 32.1252 13.6007C32.1214 13.5875 32.1168 13.5746 32.1122 13.5616C32.1088 13.5522 32.1056 13.5427 32.1018 13.5334C32.0963 13.5198 32.0902 13.5064 32.0839 13.4932C32.08 13.4849 32.0761 13.4765 32.0719 13.4683C32.0651 13.4554 32.0578 13.4429 32.0504 13.4303C32.0455 13.4221 32.0407 13.4137 32.0354 13.4056C32.028 13.3942 32.0201 13.3832 32.012 13.3721C32.0058 13.3635 31.9995 13.3548 31.9929 13.3464C31.985 13.3368 31.9771 13.3275 31.9689 13.3182C31.9609 13.3091 31.9531 13.3002 31.9447 13.2915C31.9369 13.2835 31.9289 13.2759 31.9208 13.2682C31.9113 13.2592 31.9018 13.2504 31.8919 13.242C31.8837 13.2351 31.8753 13.2286 31.8668 13.222C31.8563 13.2138 31.8458 13.2056 31.8349 13.1981C31.8257 13.1918 31.8162 13.1859 31.8068 13.1799C31.796 13.1731 31.7853 13.1664 31.7742 13.1601C31.7633 13.1539 31.7518 13.1483 31.7406 13.1427C31.7304 13.1378 31.7205 13.1326 31.71 13.1281C31.6966 13.1221 31.6828 13.117 31.6688 13.1118C31.6598 13.1085 31.6511 13.1049 31.6419 13.102C31.6265 13.0969 31.6108 13.0928 31.5949 13.0888C31.5882 13.0871 31.5818 13.0847 31.575 13.0832C28.6548 12.4189 27.7736 8.74053 27.7653 8.70491C27.7006 8.41897 27.4743 8.19737 27.1871 8.13871C26.8999 8.07969 26.6048 8.19471 26.4329 8.43246C23.114 13.0206 15.8983 13.0647 15.7804 13.0647C15.7803 13.0647 15.78 13.0647 15.7798 13.0647ZM16.5231 19.8167V14.5312C18.4309 14.4139 23.4999 13.7791 26.7604 10.3661C27.3229 11.6892 28.4876 13.6214 30.6637 14.3722V19.8167C30.6637 23.2935 27.8352 26.1222 24.3586 26.1222H22.8288C19.3517 26.1221 16.5231 23.2935 16.5231 19.8167ZM19.3581 29.7825V29.8954C19.3581 29.9744 19.3707 30.0505 19.3934 30.1219C19.3114 30.3822 19.3748 30.6778 19.5836 30.8812L22.4243 33.6481L19.6145 35.7161L17.3669 31.0965L19.3581 29.7825ZM20.5853 42.7861L19.1218 37.5617C19.1335 37.5652 19.1448 37.5695 19.1566 37.5724C19.2157 37.5869 19.2756 37.594 19.3353 37.594C19.493 37.594 19.6483 37.5441 19.7776 37.4488L20.682 36.7833L21.3114 38.2857L20.5853 42.7861ZM21.6579 45.5074L22.7174 38.9402H24.4695L25.529 45.5074H21.6579ZM25.8732 38.2708L26.4234 36.8056L27.2975 37.4489C27.427 37.5442 27.5822 37.5941 27.7398 37.5941C27.7995 37.5941 27.8594 37.587 27.9185 37.5725C27.9805 37.5571 28.0392 37.5334 28.0941 37.5036L26.6064 42.8147L25.8732 38.2708ZM39.0886 45.5074H34.8109V39.9688C34.8109 39.5566 34.477 39.2226 34.0647 39.2226C33.6525 39.2226 33.3185 39.5566 33.3185 39.9688V45.5074H27.4018L31.2271 31.8511L34.6066 33.2595C34.6211 33.2655 34.6385 33.2721 34.6534 33.2772C34.6584 33.279 35.1573 33.453 35.81 33.8764C35.8101 33.8765 35.8102 33.8765 35.8103 33.8766C37.3059 34.8475 39.0886 36.7399 39.0886 40.2422V45.5074Z" fill="#B6B6B6"/>
<path d="M24.4663 20.4985C24.8785 20.4985 25.2125 20.1645 25.2125 19.7523C25.2125 19.3401 24.8786 19.0061 24.4663 19.0061H23.9155V17.2782C23.9155 16.8661 23.5816 16.532 23.1693 16.532C22.7571 16.532 22.4231 16.8661 22.4231 17.2782V19.7523C22.4231 20.1644 22.7571 20.4985 23.1693 20.4985H24.4663Z" fill="#B6B6B6"/>
</svg>
