<svg width="47" height="47" viewBox="0 0 47 47" fill="none" xmlns="http://www.w3.org/2000/svg">
<path d="M14.1843 13.3779H9.77808C9.27108 13.3779 8.86011 13.7889 8.86011 14.2959V19.4365C8.86011 19.9435 9.27108 20.3545 9.77808 20.3545H14.1843C14.6913 20.3545 15.1023 19.9435 15.1023 19.4365V14.2959C15.1023 13.7889 14.6913 13.3779 14.1843 13.3779ZM13.2664 18.5186H10.696V15.2139H13.2664V18.5186Z" fill="#B6B6B6"/>
<path d="M14.1843 23.6592H9.77808C9.27108 23.6592 8.86011 24.0702 8.86011 24.5771V29.7178C8.86011 30.2248 9.27108 30.6357 9.77808 30.6357H14.1843C14.6913 30.6357 15.1023 30.2248 15.1023 29.7178V24.5771C15.1023 24.0702 14.6913 23.6592 14.1843 23.6592ZM13.2664 28.7998H10.696V25.4951H13.2664V28.7998Z" fill="#B6B6B6"/>
<path d="M14.1843 33.9404H9.77808C9.27108 33.9404 8.86011 34.3514 8.86011 34.8584V39.999C8.86011 40.506 9.27108 40.917 9.77808 40.917H14.1843C14.6913 40.917 15.1023 40.506 15.1023 39.999V34.8584C15.1023 34.3514 14.6913 33.9404 14.1843 33.9404ZM13.2664 39.0811H10.696V35.7764H13.2664V39.0811Z" fill="#B6B6B6"/>
<path d="M38.1414 33.9404H33.7351C33.2281 33.9404 32.8171 34.3514 32.8171 34.8584V39.999C32.8171 40.506 33.2281 40.917 33.7351 40.917H38.1414C38.6484 40.917 39.0593 40.506 39.0593 39.999V34.8584C39.0593 34.3514 38.6484 33.9404 38.1414 33.9404ZM37.2234 39.0811H34.6531V35.7764H37.2234V39.0811Z" fill="#B6B6B6"/>
<path d="M22.1699 13.3779H17.7637C17.2567 13.3779 16.8457 13.7889 16.8457 14.2959V19.4365C16.8457 19.9435 17.2567 20.3545 17.7637 20.3545H22.1699C22.6769 20.3545 23.0879 19.9435 23.0879 19.4365V14.2959C23.0879 13.7889 22.6769 13.3779 22.1699 13.3779ZM21.252 18.5186H18.6816V15.2139H21.252V18.5186Z" fill="#B6B6B6"/>
<path d="M30.1555 13.3779H25.7493C25.2423 13.3779 24.8313 13.7889 24.8313 14.2959V19.4365C24.8313 19.9435 25.2423 20.3545 25.7493 20.3545H30.1555C30.6625 20.3545 31.0735 19.9435 31.0735 19.4365V14.2959C31.0735 13.7889 30.6625 13.3779 30.1555 13.3779ZM29.2375 18.5186H26.6672V15.2139H29.2375V18.5186Z" fill="#B6B6B6"/>
<path d="M22.1699 23.6592H17.7637C17.2567 23.6592 16.8457 24.0702 16.8457 24.5771V29.7178C16.8457 30.2248 17.2567 30.6357 17.7637 30.6357H22.1699C22.6769 30.6357 23.0879 30.2248 23.0879 29.7178V24.5771C23.0879 24.0702 22.6769 23.6592 22.1699 23.6592ZM21.252 28.7998H18.6816V25.4951H21.252V28.7998Z" fill="#B6B6B6"/>
<path d="M30.1555 23.6592H25.7493C25.2423 23.6592 24.8313 24.0702 24.8313 24.5771V29.7178C24.8313 30.2248 25.2423 30.6357 25.7493 30.6357H30.1555C30.6625 30.6357 31.0735 30.2248 31.0735 29.7178V24.5771C31.0735 24.0702 30.6625 23.6592 30.1555 23.6592ZM29.2375 28.7998H26.6672V25.4951H29.2375V28.7998Z" fill="#B6B6B6"/>
<path d="M38.1414 13.3779H33.7351C33.2281 13.3779 32.8171 13.7889 32.8171 14.2959V19.4365C32.8171 19.9435 33.2281 20.3545 33.7351 20.3545H38.1414C38.6484 20.3545 39.0593 19.9435 39.0593 19.4365V14.2959C39.0593 13.7889 38.6484 13.3779 38.1414 13.3779ZM37.2234 18.5186H34.6531V15.2139H37.2234V18.5186Z" fill="#B6B6B6"/>
<path d="M38.1414 23.6592H33.7351C33.2281 23.6592 32.8171 24.0702 32.8171 24.5771V29.7178C32.8171 30.2248 33.2281 30.6357 33.7351 30.6357H38.1414C38.6484 30.6357 39.0593 30.2248 39.0593 29.7178V24.5771C39.0593 24.0702 38.6484 23.6592 38.1414 23.6592ZM37.2234 28.7998H34.6531V25.4951H37.2234V28.7998Z" fill="#B6B6B6"/>
<path d="M46.082 45.1641H42.6386V9.55266C42.6386 9.04566 42.2277 8.63469 41.7207 8.63469H36.6258V5.32422C36.6258 4.81722 36.2148 4.40625 35.7078 4.40625H30.6602V0.917969C30.6602 0.410975 30.2492 0 29.7422 0H17.2578C16.7508 0 16.3398 0.410975 16.3398 0.917969V4.40625H11.2923C10.7853 4.40625 10.3743 4.81722 10.3743 5.32422V8.63469H5.27933C4.77234 8.63469 4.36136 9.04566 4.36136 9.55266V45.1641H0.917969C0.410975 45.1641 0 45.575 0 46.082C0 46.589 0.410975 47 0.917969 47H46.082C46.589 47 47 46.589 47 46.082C47 45.575 46.589 45.1641 46.082 45.1641ZM18.1758 1.83594H28.8242V4.40625H18.1758V1.83594ZM27.3555 45.1641H21.004L27.3555 38.8125V45.1641ZM27.3555 36.2219C27.335 36.239 27.3148 36.2567 27.2955 36.276L19.6445 43.927V40.0365L25.5327 34.1484H27.3555V36.2219ZM19.6445 37.44V34.1484H22.9361L19.6445 37.44ZM40.8027 45.1641H34.6542H29.1914V34.1484H29.5127C30.0197 34.1484 30.4307 33.7375 30.4307 33.2305C30.4307 32.7235 30.0197 32.3125 29.5127 32.3125H17.4873C16.9803 32.3125 16.5693 32.7235 16.5693 33.2305C16.5693 33.7375 16.9803 34.1484 17.4873 34.1484H17.8086V45.1641H6.1973V10.4706H16.3874C16.8944 10.4706 17.3054 10.0597 17.3054 9.55266C17.3054 9.04566 16.8944 8.63469 16.3874 8.63469H12.2103V6.24219H34.7898V8.63469H23.6399C23.1329 8.63469 22.7219 9.04566 22.7219 9.55266C22.7219 10.0597 23.1329 10.4706 23.6399 10.4706H40.8027V45.1641Z" fill="#B6B6B6"/>
<path d="M20.6158 8.90336C20.4451 8.73262 20.2082 8.6344 19.9668 8.6344C19.7254 8.6344 19.4885 8.73262 19.3178 8.90336C19.1471 9.07411 19.0488 9.31094 19.0488 9.55237C19.0488 9.79379 19.1471 10.0306 19.3178 10.2014C19.4885 10.373 19.7254 10.4703 19.9668 10.4703C20.2082 10.4703 20.4451 10.373 20.6158 10.2014C20.7865 10.0306 20.8848 9.79379 20.8848 9.55237C20.8848 9.31094 20.7865 9.07411 20.6158 8.90336Z" fill="#B6B6B6"/>
</svg>
