<svg width="20" height="20" viewBox="0 0 20 20" fill="none" xmlns="http://www.w3.org/2000/svg">
<g clip-path="url(#clip0)">
<circle cx="10" cy="10" r="10" fill="url(#paint0_linear)"/>
<path d="M7.76631 6.20871C7.81771 6.10968 7.96711 6.11991 7.97155 6.23139C8.00179 6.99014 7.50567 7.77421 6.67425 8.16191C5.843 8.54953 4.92368 8.42571 4.36185 7.9151C4.27928 7.84006 4.36743 7.71903 4.47634 7.74328C5.02812 7.86613 5.70606 7.78875 6.35823 7.48463C7.01065 7.18041 7.50582 6.71058 7.76631 6.20871Z" fill="#0076B6"/>
<path d="M12.3335 6.20871C12.2821 6.10968 12.1327 6.11991 12.1283 6.23139C12.0981 6.99014 12.5942 7.77421 13.4256 8.16191C14.2568 8.54953 15.1762 8.42571 15.738 7.9151C15.8206 7.84006 15.7324 7.71903 15.6235 7.74328C15.0717 7.86613 14.3938 7.78875 13.7416 7.48463C13.0892 7.18041 12.594 6.71058 12.3335 6.20871Z" fill="#0076B6"/>
<path d="M7.75 10.375C7.75 11.1344 7.13439 11.75 6.375 11.75C5.61561 11.75 5 11.1344 5 10.375C5 9.61561 5.61561 9 6.375 9C7.13439 9 7.75 9.61561 7.75 10.375Z" fill="black"/>
<path d="M15 10.375C15 11.1344 14.3844 11.75 13.625 11.75C12.8656 11.75 12.25 11.1344 12.25 10.375C12.25 9.61561 12.8656 9 13.625 9C14.3844 9 15 9.61561 15 10.375Z" fill="black"/>
<path d="M12.5892 15.9478C12.7986 16.0893 13.093 15.9198 12.976 15.6958C12.454 14.6963 11.3183 14.0035 10.0014 14.0035C8.68434 14.0035 7.54856 14.6965 7.02659 15.6962C6.90962 15.9203 7.20408 16.0897 7.41348 15.9482C8.09177 15.4898 9.00155 15.2093 10.0016 15.2093C11.0014 15.2093 11.911 15.4896 12.5892 15.9478Z" fill="black"/>
<path d="M17.5 14.7C17.5 15.6941 16.7165 16.5 15.75 16.5C14.7835 16.5 14 15.6941 14 14.7C14 13.7059 15.75 12 15.75 12C15.75 12 17.5 13.7059 17.5 14.7Z" fill="url(#paint1_linear)"/>
</g>
<defs>
<linearGradient id="paint0_linear" x1="0" y1="0" x2="20" y2="20" gradientUnits="userSpaceOnUse">
<stop offset="0.417609" stop-color="#13D7E9"/>
<stop offset="1" stop-color="#038FDA"/>
</linearGradient>
<linearGradient id="paint1_linear" x1="14" y1="12" x2="17.75" y2="16.5" gradientUnits="userSpaceOnUse">
<stop stop-color="#BCF9FF"/>
<stop offset="1" stop-color="#32EEFF"/>
</linearGradient>
<clipPath id="clip0">
<rect width="20" height="20" fill="white"/>
</clipPath>
</defs>
</svg>
