<svg width="20" height="20" viewBox="0 0 20 20" fill="none" xmlns="http://www.w3.org/2000/svg">
<circle cx="10" cy="10" r="10" fill="#FBCECF"/>
<path d="M17 8.45039C17 10.5476 15.7045 12.6042 13.5604 14.5524C12.8201 15.225 12.0282 15.837 11.2363 16.3772C10.9591 16.5664 10.7014 16.7333 10.4697 16.8763C10.3296 16.9628 10.2286 17.0226 10.1731 17.0542C10.0658 17.1153 9.9342 17.1153 9.82686 17.0542C9.77136 17.0226 9.67036 16.9628 9.53032 16.8763C9.29864 16.7333 9.04093 16.5664 8.76365 16.3772C7.97179 15.837 7.17994 15.225 6.43961 14.5524C4.29547 12.6042 3 10.5476 3 8.45039C3 4.00058 8.41269 3.19151 10 6.6287C11.5873 3.19151 17 4.00058 17 8.45039Z" fill="url(#paint0_linear)"/>
<defs>
<linearGradient id="paint0_linear" x1="3" y1="4.5" x2="15.5304" y2="18.4227" gradientUnits="userSpaceOnUse">
<stop stop-color="#FD8A5D"/>
<stop offset="1" stop-color="#DB0000"/>
</linearGradient>
</defs>
</svg>
