<svg width="20" height="20" viewBox="0 0 20 20" fill="none" xmlns="http://www.w3.org/2000/svg">
<g clip-path="url(#clip0)">
<circle cx="10" cy="10" r="10" fill="url(#paint0_linear)"/>
<path d="M7.6472 9.11934C7.78088 9.23652 8 9.17776 8 9C8 7.89543 7.10457 7 6 7C4.89543 7 4 7.89543 4 9C4 9.17776 4.21912 9.23652 4.3528 9.11934C4.7927 8.73373 5.36905 8.5 6 8.5C6.63095 8.5 7.2073 8.73373 7.6472 9.11934Z" fill="black"/>
<path d="M15.6472 9.11934C15.7809 9.23652 16 9.17776 16 9C16 7.89543 15.1046 7 14 7C12.8954 7 12 7.89543 12 9C12 9.17776 12.2191 9.23652 12.3528 9.11934C12.7927 8.73373 13.3691 8.5 14 8.5C14.6309 8.5 15.2073 8.73373 15.6472 9.11934Z" fill="black"/>
<path d="M14.1283 12.0242C14.4123 11.8002 14.8541 11.8738 14.9283 12.2279C14.9754 12.4531 15 12.6846 15 12.9208C15 15.1754 12.7614 17.0031 10 17.0031C7.23858 17.0031 5 15.1754 5 12.9208C5 12.6848 5.02454 12.4534 5.07164 12.2283C5.14574 11.8742 5.58751 11.8006 5.8716 12.0246C6.88104 12.8204 8.35635 13.3221 9.9997 13.3221C11.6433 13.3221 13.1188 12.8203 14.1283 12.0242Z" fill="black"/>
<path d="M13.7494 15.6216C12.6656 15.228 11.3794 15 10 15C8.62067 15 7.3345 15.228 6.25061 15.6216C7.16678 16.4688 8.50698 17.0031 10 17.0031C11.4931 17.0031 12.8333 16.4688 13.7494 15.6216Z" fill="#ED353B"/>
</g>
<defs>
<linearGradient id="paint0_linear" x1="0" y1="0" x2="20" y2="20" gradientUnits="userSpaceOnUse">
<stop offset="0.469695" stop-color="#F9D624"/>
<stop offset="1" stop-color="#F56A14"/>
</linearGradient>
<clipPath id="clip0">
<rect width="20" height="20" fill="white"/>
</clipPath>
</defs>
</svg>
