<svg width="20" height="20" viewBox="0 0 20 20" fill="none" xmlns="http://www.w3.org/2000/svg">
<g clip-path="url(#clip0)">
<circle cx="10" cy="10" r="10" fill="url(#paint0_linear)"/>
<path d="M8 8.625C8 9.52246 7.27246 10.25 6.375 10.25C5.47754 10.25 4.75 9.52246 4.75 8.625C4.75 7.72754 5.47754 7 6.375 7C7.27246 7 8 7.72754 8 8.625Z" fill="black"/>
<path d="M15.25 8.625C15.25 9.52246 14.5225 10.25 13.625 10.25C12.7275 10.25 12 9.52246 12 8.625C12 7.72754 12.7275 7 13.625 7C14.5225 7 15.25 7.72754 15.25 8.625Z" fill="black"/>
<path d="M10 17.5C11.6569 17.5 13 16.0449 13 14.25C13 12.4551 11.6569 11 10 11C8.34315 11 7 12.4551 7 14.25C7 16.0449 8.34315 17.5 10 17.5Z" fill="black"/>
<path d="M3.90586 6.27994C3.84603 6.37412 3.69809 6.35091 3.70339 6.23946C3.73939 5.48096 4.30196 4.74311 5.164 4.42935C6.02587 4.11566 6.9309 4.31913 7.44609 4.87676C7.5218 4.95871 7.42345 5.0716 7.31707 5.03796C6.77809 4.86748 6.09599 4.88548 5.41979 5.1316C4.74334 5.3778 4.2091 5.80268 3.90586 6.27994Z" fill="#5C2300"/>
<path d="M16.1941 6.27994C16.2539 6.37412 16.4018 6.35091 16.3966 6.23946C16.3605 5.48096 15.798 4.74311 14.9359 4.42935C14.0741 4.11566 13.169 4.31913 12.6538 4.87676C12.5781 4.95871 12.6765 5.0716 12.7829 5.03796C13.3219 4.86748 14.004 4.88548 14.6802 5.1316C15.3566 5.3778 15.8908 5.80268 16.1941 6.27994Z" fill="#5C2300"/>
<path d="M12.1648 16.5C11.6189 17.1163 10.8508 17.5 10 17.5C9.14924 17.5 8.38117 17.1163 7.83521 16.5C8.38117 15.8837 9.14924 15.5 10 15.5C10.8508 15.5 11.6189 15.8837 12.1648 16.5Z" fill="#ED353B"/>
</g>
<defs>
<linearGradient id="paint0_linear" x1="0" y1="0" x2="20" y2="20" gradientUnits="userSpaceOnUse">
<stop offset="0.488163" stop-color="#FFA53B"/>
<stop offset="1" stop-color="#EB5C1F"/>
</linearGradient>
<clipPath id="clip0">
<rect width="20" height="20" fill="white"/>
</clipPath>
</defs>
</svg>
