<svg width="20" height="20" viewBox="0 0 20 20" fill="none" xmlns="http://www.w3.org/2000/svg">
<g clip-path="url(#clip0)">
<circle cx="10" cy="10" r="10" fill="url(#paint0_linear)"/>
<path d="M7.75 8.375C7.75 9.13439 7.13439 9.75 6.375 9.75C5.61561 9.75 5 9.13439 5 8.375C5 7.61561 5.61561 7 6.375 7C7.13439 7 7.75 7.61561 7.75 8.375Z" fill="black"/>
<path d="M14.0555 13.0573C14.348 12.6495 13.7951 12.292 13.3527 12.529C12.4239 13.0265 11.2613 13.3222 9.99973 13.3222C8.73865 13.3222 7.57652 13.0267 6.64794 12.5296C6.20547 12.2928 5.65275 12.6504 5.94536 13.0581C6.78283 14.2251 8.28558 15.0031 10.0001 15.0031C11.7151 15.0031 13.2181 14.2247 14.0555 13.0573Z" fill="black"/>
<path d="M13.625 9.75C14.3844 9.75 15 9.13439 15 8.375C15 7.61561 14.3844 7 13.625 7C12.8656 7 12.25 7.61561 12.25 8.375C12.25 9.13439 12.8656 9.75 13.625 9.75Z" fill="black"/>
</g>
<defs>
<linearGradient id="paint0_linear" x1="0" y1="0" x2="20" y2="20" gradientUnits="userSpaceOnUse">
<stop offset="0.469695" stop-color="#F9D624"/>
<stop offset="1" stop-color="#F56A14"/>
</linearGradient>
<clipPath id="clip0">
<rect width="20" height="20" fill="white"/>
</clipPath>
</defs>
</svg>
