<svg width="20" height="20" viewBox="0 0 20 20" fill="none" xmlns="http://www.w3.org/2000/svg">
<path d="M20 10C20 15.5228 15.5228 20 10 20C4.47715 20 0 15.5228 0 10C0 4.47715 4.47715 0 10 0C15.5228 0 20 4.47715 20 10Z" fill="url(#paint0_linear)"/>
<path d="M10.7779 13.4809H8.80395L8.62195 14.9999H14.3899L14.5859 13.4809H12.8709L13.9419 4.79395H12.2059L8.71995 7.46095L9.26595 8.34295C9.30328 8.39895 9.36395 8.45261 9.44795 8.50395C9.53195 8.55061 9.63461 8.57395 9.75595 8.57395C9.82128 8.57395 9.89128 8.56461 9.96595 8.54595C10.0453 8.52728 10.1246 8.48761 10.2039 8.42695L11.5829 7.36295L11.4359 7.99295L10.7779 13.4809Z" fill="#006142"/>
<path d="M6.67497 10.105L6.91997 8.11499H5.70997L5.45997 10.105H3.60997L3.46997 11.175H5.32997L5.07997 13.175H6.29997L6.54497 11.175H8.40997L8.54997 10.105H6.67497Z" fill="#006142"/>
<defs>
<linearGradient id="paint0_linear" x1="0" y1="0" x2="20" y2="20" gradientUnits="userSpaceOnUse">
<stop offset="0.357947" stop-color="#C5EE2F"/>
<stop offset="1" stop-color="#32D28A"/>
</linearGradient>
</defs>
</svg>
