<?xml version="1.0" standalone="no"?>
<!DOCTYPE svg PUBLIC "-//W3C//DTD SVG 1.1//EN" "http://www.w3.org/Graphics/SVG/1.1/DTD/svg11.dtd" >
<svg>
<metadata>
Created by FontForge 20090622 at Fri Jul  3 05:47:22 2020
 By deploy user
Pangram Pangram 2015
</metadata>
<defs>
<font id="Pangram-Light" horiz-adv-x="0" >
  <font-face 
    font-family="Pangram Light"
    font-weight="300"
    font-stretch="normal"
    units-per-em="1000"
    panose-1="0 0 4 0 0 0 0 0 0 0"
    ascent="800"
    descent="-200"
    x-height="506"
    cap-height="710"
    bbox="-724 -250 1284 996"
    underline-thickness="50"
    underline-position="-50"
    unicode-range="U+0020-U+25CA"
  />
<missing-glyph horiz-adv-x="490" 
d="M402 750v-980h-311v980h311zM326 684h-161v-32h63v-36h-64v-33h162v33h-64v36h64v32zM262 558h-98v-102h162v33h-64v69zM228 525v-36h-32v36h32zM326 430h-162v-33h64v-36h-64v-32h98v68h64v33zM326 371h-32v-65h-130v-33h162v98zM326 251h-98v-55h34v23h32v-46h-98v78
h-32v-111h162v111zM326 82h-162v-111h162v111zM294 49v-46h-98v46h98zM326 -52h-162v-32h68l-68 -46v-32h162v32h-100l69 46h31v32z" />
    <glyph glyph-name=".notdef" horiz-adv-x="490" 
d="M402 750v-980h-311v980h311zM326 684h-161v-32h63v-36h-64v-33h162v33h-64v36h64v32zM262 558h-98v-102h162v33h-64v69zM228 525v-36h-32v36h32zM326 430h-162v-33h64v-36h-64v-32h98v68h64v33zM326 371h-32v-65h-130v-33h162v98zM326 251h-98v-55h34v23h32v-46h-98v78
h-32v-111h162v111zM326 82h-162v-111h162v111zM294 49v-46h-98v46h98zM326 -52h-162v-32h68l-68 -46v-32h162v32h-100l69 46h31v32z" />
    <glyph glyph-name=".null" 
 />
    <glyph glyph-name="nonmarkingreturn" horiz-adv-x="333" 
 />
    <glyph glyph-name="space" unicode=" " horiz-adv-x="269" 
 />
    <glyph glyph-name="exclam" unicode="!" horiz-adv-x="193" 
d="M83 185l-2 525h49l-2 -525h-45zM106 -10q-15 0 -25 10.5t-10 24.5q0 15 10 25.5t25 10.5t25.5 -10.5t10.5 -25.5q0 -14 -10.5 -24.5t-25.5 -10.5z" />
    <glyph glyph-name="quotedbl" unicode="&#x22;" horiz-adv-x="283" 
d="M203 718h40v-168h-40v168zM110 718h41v-168h-41v168z" />
    <glyph glyph-name="numbersign" unicode="#" horiz-adv-x="730" 
d="M670 440h-125l-22 -208h117v-48h-122l-20 -184h-47l20 184h-209l-20 -184h-47l20 184h-135v48h140l22 208h-132v48h137l24 222h47l-23 -222h208l24 222h47l-24 -222h120v-48zM476 232l22 208h-208l-23 -208h209z" />
    <glyph glyph-name="dollar" unicode="$" horiz-adv-x="625" 
d="M541 163q0 -77 -55.5 -124t-144.5 -49v-70h-24v70q-81 5 -138 56.5t-63 133.5h48q6 -65 49.5 -102t103.5 -41v310q-49 23 -74.5 38t-55.5 40t-43 56t-13 72q0 71 53.5 117.5t132.5 49.5v70h24v-71q71 -5 118.5 -54t53.5 -117h-48q-5 49 -39.5 84.5t-84.5 40.5v-287
q98 -46 149 -96t51 -127zM179 552q0 -31 10 -55t32.5 -42.5t41 -29.5t54.5 -28v277q-58 -2 -98 -36.5t-40 -85.5zM341 36q70 2 111 37t41 91q0 59 -39.5 97t-112.5 74v-299z" />
    <glyph glyph-name="percent" unicode="%" horiz-adv-x="985" 
d="M265 390q-69 0 -117 48t-48 117t48 117t117 48t117 -48t48 -117t-48 -117t-117 -48zM794 710l-536 -710h-49l536 710h49zM265 429q53 0 89.5 36.5t36.5 89.5t-36.5 89.5t-89.5 36.5t-89.5 -36.5t-36.5 -89.5t36.5 -89.5t89.5 -36.5zM740 -10q-69 0 -117 48t-48 117
t48 117t117 48t117 -48t48 -117t-48 -117t-117 -48zM740 29q53 0 90 36.5t37 89.5t-37 89.5t-90 36.5t-89.5 -36.5t-36.5 -89.5t36.5 -89.5t89.5 -36.5z" />
    <glyph glyph-name="ampersand" unicode="&#x26;" horiz-adv-x="726" 
d="M646 0h-59l-56 57q-75 -67 -190 -67q-110 0 -175.5 64t-65.5 156q0 62 33 109.5t78 70.5q-63 66 -63 146q0 77 54 130.5t145 53.5q86 0 138 -55.5t52 -135.5h-48q0 62 -39 103.5t-104 41.5q-67 0 -108.5 -41t-41.5 -100q0 -30 12 -57.5t23.5 -42t32.5 -35.5l264 -275
q55 73 55 178h-49v31h98q0 -153 -71 -243zM345 36q91 0 154 55l-259 270q-38 -18 -65 -55.5t-27 -87.5q0 -77 54 -129.5t143 -52.5z" />
    <glyph glyph-name="quotesingle" unicode="'" horiz-adv-x="191" 
d="M110 718h41v-168h-41v168z" />
    <glyph glyph-name="parenleft" unicode="(" horiz-adv-x="328" 
d="M248 710v-46q-46 0 -83 -31.5t-37 -98.5v-438q0 -67 37 -98.5t83 -31.5v-46q-71 0 -119.5 44.5t-48.5 131.5v438q0 87 48.5 131.5t119.5 44.5z" />
    <glyph glyph-name="parenright" unicode=")" horiz-adv-x="318" 
d="M70 710q71 0 119.5 -44.5t48.5 -131.5v-438q0 -87 -48.5 -131.5t-119.5 -44.5v46q46 0 83 31.5t37 98.5v438q0 67 -37 98.5t-83 31.5v46z" />
    <glyph glyph-name="asterisk" unicode="*" horiz-adv-x="493" 
d="M324 406l-63 117l-63 -117l-35 21l69 112l-132 -4v41l133 -4l-70 113l35 20l63 -116l63 117l36 -20l-70 -114l133 4v-41l-133 4l70 -113z" />
    <glyph glyph-name="plus" unicode="+" horiz-adv-x="528" 
d="M428 311v-46h-141v-141h-46v141h-141v46h141v141h46v-141h141z" />
    <glyph glyph-name="comma" unicode="," horiz-adv-x="173" 
d="M66 50h57l-52 -168h-41z" />
    <glyph glyph-name="hyphen" unicode="-" horiz-adv-x="476" 
d="M84 296h328v-46h-328v46z" />
    <glyph glyph-name="period" unicode="." horiz-adv-x="151" 
d="M65 -10q-14 0 -24.5 10.5t-10.5 24.5q0 15 10.5 25.5t24.5 10.5q15 0 25.5 -10.5t10.5 -25.5q0 -14 -10.5 -24.5t-25.5 -10.5z" />
    <glyph glyph-name="slash" unicode="/" horiz-adv-x="390" 
d="M360 710l-266 -710h-44l266 710h44z" />
    <glyph glyph-name="zero" unicode="0" horiz-adv-x="635" 
d="M327 720q103 0 175.5 -69t72.5 -175v-242q0 -106 -72.5 -175t-175.5 -69q-102 0 -174.5 69.5t-72.5 174.5v242q0 105 72.5 174.5t174.5 69.5zM327 36q84 0 142 57t58 141v242q0 84 -58 141t-142 57q-83 0 -141 -57t-58 -141v-242q0 -84 58 -141t141 -57z" />
    <glyph glyph-name="one" unicode="1" horiz-adv-x="521" 
d="M295 46h176v-46h-401v46h176v602l-136 -38v48l185 52v-664z" />
    <glyph glyph-name="two" unicode="2" horiz-adv-x="644" 
d="M574 502q0 -69 -45 -126.5t-109 -96.5t-127.5 -74t-108.5 -75.5t-45 -83.5h435v-46h-484v46q0 54 45 101t109 83.5l127.5 74t108.5 88.5t45 110q0 75 -51 123t-127 48q-92 0 -150.5 -52.5t-58.5 -131.5h-48q0 98 71.5 164t186.5 66q98 0 162 -60.5t64 -157.5z" />
    <glyph glyph-name="three" unicode="3" horiz-adv-x="647" 
d="M444 369q60 -20 96.5 -63.5t36.5 -110.5q0 -86 -62.5 -145.5t-170.5 -59.5q-112 0 -183 67.5t-71 165.5h48q0 -81 58 -134t146 -53q86 0 136.5 46.5t50.5 114.5q0 40 -17 69.5t-46 46t-62 24t-71 7.5h-57v46h57q76 0 121 35t45 100t-46 107t-121 42q-86 0 -140 -53
t-54 -134h-48q0 99 66.5 166t177.5 67q95 0 154 -55.5t59 -137.5q0 -112 -103 -158z" />
    <glyph glyph-name="four" unicode="4" horiz-adv-x="654" 
d="M604 200v-47h-97v-153h-48v153h-389v47l389 510h48v-510h97zM131 200h328v435z" />
    <glyph glyph-name="five" unicode="5" horiz-adv-x="647" 
d="M341 475q100 0 168 -65.5t68 -178.5q0 -101 -71 -171t-172 -70q-111 0 -177.5 67.5t-66.5 165.5h48q1 -80 54.5 -132.5t140.5 -52.5q81 0 138.5 56t57.5 139q0 93 -56 145.5t-139 52.5q-60 0 -114 -28.5t-73 -87.5h-48l61 395h367v-46h-326l-39 -253q70 64 179 64z" />
    <glyph glyph-name="six" unicode="6" horiz-adv-x="667" 
d="M345 470q101 0 171.5 -71t70.5 -169q0 -99 -70.5 -169.5t-171.5 -70.5q-103 0 -174 70.5t-71 169.5q0 73 42 134l226 346h56l-169 -257q42 17 90 17zM345 36q81 0 137.5 57t56.5 137q0 79 -57 136.5t-137 57.5q-83 0 -140 -57t-57 -137t57 -137t140 -57z" />
    <glyph glyph-name="seven" unicode="7" horiz-adv-x="588" 
d="M80 710h458v-46l-316 -664h-53l317 664h-406v46z" />
    <glyph glyph-name="eight" unicode="8" horiz-adv-x="644" 
d="M437 388q62 -24 99.5 -73t37.5 -114q0 -90 -68 -147.5t-174 -57.5t-174 57.5t-68 147.5q0 65 37 114t100 73q-44 22 -70.5 60.5t-26.5 89.5q0 80 60 128t142 48t142 -48t60 -128q0 -51 -27 -89t-70 -61zM178 538q0 -62 47 -96t107 -34q59 0 106 34.5t47 95.5t-47 95.5
t-106 34.5q-60 0 -107 -34t-47 -96zM332 42q83 0 138 44.5t55 114.5t-55 114.5t-138 44.5t-138.5 -44.5t-55.5 -114.5t55.5 -114.5t138.5 -44.5z" />
    <glyph glyph-name="nine" unicode="9" horiz-adv-x="667" 
d="M587 480q0 -67 -37 -127l-231 -353h-56l170 257q-43 -17 -90 -17q-101 0 -172 71t-71 169q0 99 71 169.5t172 70.5q102 0 173 -70.5t71 -169.5zM148 480q0 -79 57 -136t138 -57q82 0 139 57t57 136q0 80 -57 137t-139 57q-81 0 -138 -57t-57 -137z" />
    <glyph glyph-name="colon" unicode=":" horiz-adv-x="191" 
d="M105 399q-14 0 -24.5 10t-10.5 25t10.5 25.5t24.5 10.5q15 0 25.5 -10.5t10.5 -25.5t-10.5 -25t-25.5 -10zM105 -10q-14 0 -24.5 10.5t-10.5 24.5q0 15 10.5 25.5t24.5 10.5q15 0 25.5 -10.5t10.5 -25.5q0 -14 -10.5 -24.5t-25.5 -10.5z" />
    <glyph glyph-name="semicolon" unicode=";" horiz-adv-x="176" 
d="M89 399q-14 0 -24.5 10t-10.5 25t10.5 25t24.5 10q15 0 25.5 -10t10.5 -25t-10.5 -25t-25.5 -10zM65 50h57l-51 -168h-42z" />
    <glyph glyph-name="less" unicode="&#x3c;" horiz-adv-x="526" 
d="M426 457v-45l-276 -119l276 -120v-45l-328 142v45z" />
    <glyph glyph-name="equal" unicode="=" horiz-adv-x="528" 
d="M100 368h328v-47h-328v47zM100 255h328v-46h-328v46z" />
    <glyph glyph-name="greater" unicode="&#x3e;" horiz-adv-x="528" 
d="M100 457l328 -142v-45l-328 -142v45l277 119l-277 120v45z" />
    <glyph glyph-name="question" unicode="?" horiz-adv-x="525" 
d="M277 720q93 0 146.5 -53t53.5 -125q0 -78 -51 -129t-134 -61l-1 -167h-45l-2 203h7q81 0 129.5 39t48.5 110q0 58 -40.5 97.5t-110.5 39.5q-67 0 -114.5 -45.5t-47.5 -123.5h-48q0 98 61 156.5t148 58.5zM268 61q15 0 25.5 -10.5t10.5 -25.5q0 -14 -10.5 -24.5
t-25.5 -10.5q-14 0 -24.5 10.5t-10.5 24.5q0 15 10.5 25.5t24.5 10.5z" />
    <glyph glyph-name="at" unicode="@" horiz-adv-x="981" 
d="M100 341q0 166 116.5 278.5t274.5 112.5q170 0 280 -109t110 -278q0 -108 -48 -177t-118 -69q-50 0 -72.5 37t-22.5 114q-21 -42 -63 -68t-92 -26q-74 0 -126.5 54t-52.5 131t52.5 131t126.5 54q49 0 91 -25.5t63 -66.5v89h40v-275q0 -115 64 -115q47 0 82.5 57.5
t35.5 150.5q0 153 -96 251.5t-254 98.5q-143 0 -246.5 -99.5t-103.5 -250.5q0 -81 30.5 -148t79 -107.5t103.5 -62.5t109 -22q95 0 179 45l36 -23q-98 -62 -215 -62q-64 0 -127 25.5t-116.5 72t-86.5 120.5t-33 162zM328 341q0 -59 42.5 -101.5t102.5 -42.5q59 0 101.5 42.5
t42.5 101.5q0 60 -42.5 102.5t-101.5 42.5q-60 0 -102.5 -42.5t-42.5 -102.5z" />
    <glyph glyph-name="A" unicode="A" horiz-adv-x="705" 
d="M595 0l-70 194h-325l-70 -194h-50l256 710h53l256 -710h-50zM217 240h292l-146 405z" />
    <glyph glyph-name="B" unicode="B" horiz-adv-x="592" 
d="M396 378q62 -23 98 -72.5t36 -116.5q0 -91 -62.5 -140t-179.5 -49h-206v710h194q107 0 160.5 -48.5t53.5 -128.5q0 -113 -94 -155zM130 664v-266h146q84 0 125 32.5t41 100.5q0 64 -42 98.5t-124 34.5h-146zM288 46q194 0 194 145q0 73 -48.5 117t-137.5 44h-166v-306
h158z" />
    <glyph glyph-name="C" unicode="C" horiz-adv-x="724" 
d="M654 597q-86 77 -206 77q-128 0 -219 -93t-91 -226t91 -226t219 -93q120 0 206 77v-51q-80 -72 -210 -72q-150 0 -252 106.5t-102 258.5t102 258.5t252 106.5q130 0 210 -72v-51z" />
    <glyph glyph-name="D" unicode="D" horiz-adv-x="682" 
d="M292 710q149 0 240.5 -101.5t91.5 -253.5t-91.5 -253.5t-240.5 -101.5h-214v710h214zM292 46q125 0 204.5 87t79.5 222t-79.5 222t-204.5 87h-166v-618h166z" />
    <glyph glyph-name="E" unicode="E" horiz-adv-x="499" 
d="M441 664h-315v-269h241v-46h-241v-303h315v-46h-363v710h363v-46z" />
    <glyph glyph-name="F" unicode="F" horiz-adv-x="483" 
d="M433 664h-315v-266h261v-47h-261v-351h-48v710h363v-46z" />
    <glyph glyph-name="G" unicode="G" horiz-adv-x="860" 
d="M431 366h359q0 -163 -97 -269.5t-254 -106.5q-151 0 -250 106.5t-99 258.5t100 258.5t253 106.5q177 0 282 -151l-37 -29q-95 134 -245 134q-130 0 -217.5 -93t-87.5 -226t86.5 -226t214.5 -93q124 0 207 80.5t94 202.5h-309v47z" />
    <glyph glyph-name="H" unicode="H" horiz-adv-x="651" 
d="M544 710h49v-710h-49v340h-418v-340h-48v710h48v-324h418v324z" />
    <glyph glyph-name="I" unicode="I" horiz-adv-x="188" 
d="M80 0v710h48v-710h-48z" />
    <glyph glyph-name="J" unicode="J" horiz-adv-x="448" 
d="M128 140q0 -43 28.5 -73.5t72.5 -30.5q101 0 101 130v544h48v-544q0 -90 -41.5 -133t-105.5 -43q-61 0 -106 41.5t-45 108.5h48z" />
    <glyph glyph-name="K" unicode="K" horiz-adv-x="610" 
d="M550 710l-295 -339l295 -371h-58l-268 335l-96 -110v-225h-48v710h48v-413l360 413h62z" />
    <glyph glyph-name="L" unicode="L" horiz-adv-x="498" 
d="M138 46h290v-46h-338v710h48v-664z" />
    <glyph glyph-name="M" unicode="M" horiz-adv-x="840" 
d="M728 710h49v-710h-49v621l-283 -464h-30l-283 464v-621h-48v710h48l298 -488z" />
    <glyph glyph-name="N" unicode="N" horiz-adv-x="681" 
d="M573 710h48v-710h-48l-445 628v-628h-48v710h48l445 -628v628z" />
    <glyph glyph-name="O" unicode="O" horiz-adv-x="871" 
d="M445 -10q-150 0 -252.5 107t-102.5 258t102.5 258t252.5 107t253 -107t103 -258t-103 -258t-253 -107zM445 36q128 0 217.5 94t89.5 225t-89.5 225t-217.5 94t-217.5 -94t-89.5 -225t89.5 -225t217.5 -94z" />
    <glyph glyph-name="P" unicode="P" horiz-adv-x="592" 
d="M290 710q108 0 176 -58t68 -167q0 -108 -68 -166t-176 -58h-164v-261h-48v710h212zM290 307q89 0 142.5 44.5t53.5 133.5t-53.5 134t-142.5 45h-164v-357h164z" />
    <glyph glyph-name="Q" unicode="Q" horiz-adv-x="870" 
d="M803 -8l-34 -34l-106 107q-96 -75 -218 -75q-150 0 -252.5 107t-102.5 258t102.5 258t252.5 107t253 -107t103 -258q0 -152 -103 -258zM445 36q102 0 184 63l-103 104l33 33l105 -105q88 93 88 224t-89.5 225t-217.5 94t-217.5 -94t-89.5 -225t89.5 -225t217.5 -94z" />
    <glyph glyph-name="R" unicode="R" horiz-adv-x="594" 
d="M480 0l-167 253h-187v-253h-48v710h239q89 0 153 -63t64 -166q0 -88 -48 -147.5t-122 -75.5l172 -258h-56zM126 664v-365h191q69 0 119 50t50 132q0 83 -50 133t-119 50h-191z" />
    <glyph glyph-name="S" unicode="S" horiz-adv-x="601" 
d="M106 180h48q6 -69 55 -106.5t113 -37.5q74 0 117.5 35.5t43.5 92.5q0 62 -44 101.5t-127 78.5l-62 31.5t-50 31t-43.5 38.5t-24.5 46t-11 62q0 72 56.5 119.5t137.5 47.5q77 0 129.5 -50t58.5 -122h-48q-6 54 -44.5 90t-95.5 36q-61 0 -103.5 -34.5t-42.5 -87.5
q0 -74 70 -119q22 -14 86 -44q101 -47 153.5 -97.5t52.5 -128.5t-58 -125.5t-151 -47.5q-85 0 -147.5 52t-68.5 138z" />
    <glyph glyph-name="T" unicode="T" horiz-adv-x="529" 
d="M479 710v-46h-181v-664h-48v664h-180v46h409z" />
    <glyph glyph-name="U" unicode="U" horiz-adv-x="667" 
d="M609 279q0 -143 -71.5 -216t-193.5 -73q-123 0 -194.5 73t-71.5 216v431h48v-431q0 -124 59 -183.5t159 -59.5q99 0 158 59.5t59 183.5v431h48v-431z" />
    <glyph glyph-name="V" unicode="V" horiz-adv-x="692" 
d="M592 710h50l-259 -710h-54l-259 710h50l236 -651z" />
    <glyph glyph-name="W" unicode="W" horiz-adv-x="1110" 
d="M1011 710h49l-232 -710h-55l-208 634l-207 -634h-56l-232 710h50l210 -644l210 644h50l210 -644z" />
    <glyph glyph-name="X" unicode="X" horiz-adv-x="715" 
d="M665 710l-268 -355l268 -355h-59l-239 316l-238 -316h-59l268 355l-268 355h59l238 -316l239 316h59z" />
    <glyph glyph-name="Y" unicode="Y" horiz-adv-x="667" 
d="M562 710h55l-250 -404v-306h-48v306l-249 404h55l218 -353z" />
    <glyph glyph-name="Z" unicode="Z" horiz-adv-x="672" 
d="M612 710v-46l-461 -618h461v-46h-522v46l461 618h-461v46h522z" />
    <glyph glyph-name="bracketleft" unicode="[" horiz-adv-x="328" 
d="M248 664h-120v-698h120v-46h-168v790h168v-46z" />
    <glyph glyph-name="backslash" unicode="\" horiz-adv-x="390" 
d="M50 710h44l266 -710h-44z" />
    <glyph glyph-name="bracketright" unicode="]" horiz-adv-x="318" 
d="M238 710v-790h-168v46h120v698h-120v46h168z" />
    <glyph glyph-name="asciicircum" unicode="^" horiz-adv-x="493" 
d="M463 310h-45l-161 351l-162 -351h-45l184 400h45z" />
    <glyph glyph-name="underscore" unicode="_" horiz-adv-x="650" 
d="M30 -33h610v-40h-610v40z" />
    <glyph glyph-name="grave" unicode="`" horiz-adv-x="342" 
d="M156 716l86 -138h-40l-102 138h56z" />
    <glyph glyph-name="a" unicode="a" horiz-adv-x="696" 
d="M90 254q0 108 76.5 185t184.5 77q76 0 137 -40.5t89 -105.5l2 136h47v-506h-47l-2 137q-27 -66 -88.5 -106.5t-137.5 -40.5q-109 0 -185 77t-76 187zM138 254q0 -90 64 -154t155 -64q90 0 153.5 64t63.5 154q0 89 -63.5 152.5t-153.5 63.5q-91 0 -155 -63.5t-64 -152.5z
" />
    <glyph glyph-name="b" unicode="b" horiz-adv-x="692" 
d="M622 254q0 -110 -76 -187t-185 -77q-76 0 -137.5 40.5t-89.5 106.5l-1 -137h-47v750h48v-380q28 65 89.5 105.5t137.5 40.5q108 0 184.5 -77t76.5 -185zM574 254q0 89 -64 152.5t-155 63.5q-90 0 -153.5 -63.5t-63.5 -152.5q0 -90 63.5 -154t153.5 -64q91 0 155 64
t64 154z" />
    <glyph glyph-name="c" unicode="c" horiz-adv-x="590" 
d="M520 397q-70 73 -161 73q-89 0 -154 -63.5t-65 -152.5q0 -91 65 -154.5t154 -63.5q91 0 161 73v-50q-66 -69 -166 -69q-110 0 -187 77.5t-77 186.5q0 108 77 185t187 77q100 0 166 -69v-50z" />
    <glyph glyph-name="d" unicode="d" horiz-adv-x="696" 
d="M90 254q0 108 76.5 185t184.5 77q76 0 137 -40.5t89 -105.5v380h49v-750h-47l-2 137q-27 -66 -88.5 -106.5t-137.5 -40.5q-109 0 -185 77t-76 187zM138 254q0 -90 64 -154t155 -64q90 0 153.5 64t63.5 154q0 89 -63.5 152.5t-153.5 63.5q-91 0 -155 -63.5t-64 -152.5z
" />
    <glyph glyph-name="e" unicode="e" horiz-adv-x="666" 
d="M596 249v-11h-458q3 -92 62.5 -148t150.5 -56q70 0 117 33t67 79l43 -7q-19 -59 -79.5 -104t-148.5 -45q-112 0 -186 74.5t-74 191.5q0 108 72 184t181 76q113 0 183 -78.5t70 -188.5zM343 472q-86 0 -144 -57t-61 -140h409q-5 82 -61 139.5t-143 57.5z" />
    <glyph glyph-name="f" unicode="f" horiz-adv-x="332" 
d="M219 674q-66 0 -66 -91v-77h121v-46h-121v-460h-48v460h-45v46h45v85q0 63 27.5 96t74.5 33q43 0 75 -26v-44q-8 7 -27 15.5t-36 8.5z" />
    <glyph glyph-name="g" unicode="g" horiz-adv-x="589" 
d="M279 69q109 0 174.5 -40t65.5 -114q0 -72 -60 -113.5t-154 -41.5t-154.5 41.5t-60.5 113.5q0 80 82 128q-49 21 -49 59q0 22 16.5 39.5t40.5 25.5q-42 26 -66 67.5t-24 91.5q0 80 58.5 135t145.5 55q50 0 95 -21l124 11v-44h-75q60 -55 60 -136q0 -80 -58.5 -135
t-145.5 -55q-41 0 -80 14q-44 -16 -44 -42q0 -39 109 -39zM136 326q0 -62 45.5 -104.5t112.5 -42.5t112 42.5t45 104.5q0 63 -45 105.5t-112 42.5t-112.5 -43t-45.5 -105zM305 -198q75 0 121.5 29.5t46.5 82.5q0 58 -56 85.5t-148 27.5q-23 0 -44 3q-33 -15 -61 -47t-28 -68
q0 -53 47 -83t122 -30z" />
    <glyph glyph-name="h" unicode="h" horiz-adv-x="599" 
d="M347 516q87 0 138.5 -57.5t51.5 -165.5v-293h-48v278q0 97 -42.5 144.5t-112.5 47.5q-42 0 -76.5 -14.5t-55.5 -36t-36 -48.5t-21 -50.5t-7 -43.5v-277h-48v750h48v-353q74 119 209 119z" />
    <glyph glyph-name="i" unicode="i" horiz-adv-x="193" 
d="M96 604q-14 0 -24.5 10.5t-10.5 24.5q0 15 10.5 25.5t24.5 10.5q15 0 25.5 -10.5t10.5 -25.5q0 -14 -10.5 -24.5t-25.5 -10.5zM120 506v-506h-48v506h48z" />
    <glyph glyph-name="j" unicode="j" horiz-adv-x="207" 
d="M131 604q-14 0 -24.5 10.5t-10.5 24.5q0 15 10.5 25.5t24.5 10.5q15 0 25.5 -10.5t10.5 -25.5q0 -14 -10.5 -24.5t-25.5 -10.5zM157 506v-506l-77 -230h-50l79 234v502h48z" />
    <glyph glyph-name="k" unicode="k" horiz-adv-x="561" 
d="M501 506l-235 -220l235 -286h-61l-209 254l-93 -87v-167h-48v750h48v-519l295 275h68z" />
    <glyph glyph-name="l" unicode="l" horiz-adv-x="198" 
d="M138 750v-750h-48v750h48z" />
    <glyph glyph-name="m" unicode="m" horiz-adv-x="925" 
d="M686 516q80 0 124.5 -55.5t44.5 -147.5v-313h-48v301q0 77 -35.5 123t-98.5 46q-73 0 -121 -60.5t-55 -146.5v-263h-48v301q0 77 -35.5 123t-99.5 46q-72 0 -120.5 -60.5t-55.5 -146.5v-263h-48v506h45l3 -112q73 122 189 122q63 0 105 -36t57 -98q73 134 197 134z" />
    <glyph glyph-name="n" unicode="n" horiz-adv-x="599" 
d="M347 516q87 0 138.5 -57.5t51.5 -165.5v-293h-48v278q0 97 -42.5 144.5t-112.5 47.5q-42 0 -76.5 -14.5t-55.5 -36t-36 -48.5t-21 -50.5t-7 -43.5v-277h-48v506h45l3 -109q74 119 209 119z" />
    <glyph glyph-name="o" unicode="o" horiz-adv-x="692" 
d="M357 -10q-112 0 -189.5 77t-77.5 187q0 108 78 185t189 77t188 -77t77 -185q0 -110 -77 -187t-188 -77zM357 36q90 0 153.5 64t63.5 154q0 89 -63.5 152.5t-153.5 63.5q-91 0 -155 -63.5t-64 -152.5q0 -90 64 -154t155 -64z" />
    <glyph glyph-name="p" unicode="p" horiz-adv-x="696" 
d="M90 -230v736h45l3 -136q28 65 89 105.5t137 40.5q109 0 185.5 -77t76.5 -185q0 -110 -76.5 -187t-185.5 -77q-76 0 -137 40.5t-89 106.5v-367h-48zM142 254q0 -90 63.5 -154t153.5 -64q91 0 154.5 64t63.5 154q0 89 -64 152.5t-154 63.5t-153.5 -63.5t-63.5 -152.5z" />
    <glyph glyph-name="q" unicode="q" horiz-adv-x="696" 
d="M626 -230h-49v367q-27 -66 -88.5 -106.5t-137.5 -40.5q-109 0 -185 77t-76 187q0 108 76.5 185t184.5 77q76 0 137 -40.5t89 -105.5l3 136h46v-736zM574 254q0 89 -63.5 152.5t-153.5 63.5q-91 0 -155 -63.5t-64 -152.5q0 -90 64 -154t155 -64q90 0 153.5 64t63.5 154z
" />
    <glyph glyph-name="r" unicode="r" horiz-adv-x="358" 
d="M262 516q38 0 66 -23l-12 -41q-27 18 -56 18q-42 0 -71 -31.5t-40 -72.5t-11 -86v-280h-48v506h45l3 -77q49 87 124 87z" />
    <glyph glyph-name="s" unicode="s" horiz-adv-x="533" 
d="M90 127h48q15 -43 53 -68.5t96 -25.5t92.5 24t34.5 62q0 12 -2 22.5t-7.5 19.5t-10.5 16t-16.5 14.5t-18.5 12.5t-24.5 12.5t-26.5 12t-31.5 13.5l-34.5 14q-30 12 -49 21.5t-41.5 25.5t-33.5 38.5t-11 50.5q0 56 47 90t108 34q68 0 113 -36t51 -94h-48q-6 41 -38 64.5
t-77 23.5q-42 0 -74.5 -22.5t-32.5 -59.5q0 -13 3.5 -23.5t12.5 -20t16.5 -16t25 -15t29 -13.5l36 -15.5l38.5 -16.5q34 -14 56 -26t45 -30t34 -42t11 -55q0 -57 -48.5 -93t-128.5 -36q-78 0 -130.5 36.5t-65.5 100.5z" />
    <glyph glyph-name="t" unicode="t" horiz-adv-x="319" 
d="M269 506v-46h-96v-460h-48v460h-65v46h65v150h48v-150h96z" />
    <glyph glyph-name="u" unicode="u" horiz-adv-x="599" 
d="M481 506h48v-506h-46l-2 109q-74 -119 -209 -119q-87 0 -138.5 57.5t-51.5 165.5v293h48v-278q0 -97 42.5 -144.5t112.5 -47.5q43 0 78.5 15t56.5 38t35.5 51t20 51.5t5.5 43.5v271z" />
    <glyph glyph-name="v" unicode="v" horiz-adv-x="626" 
d="M512 506h54l-216 -506h-55l-215 506h54l189 -454z" />
    <glyph glyph-name="w" unicode="w" horiz-adv-x="922" 
d="M811 506h51l-183 -506h-51l-157 435l-158 -435h-50l-183 506h51l157 -445l157 445h51l157 -445z" />
    <glyph glyph-name="x" unicode="x" horiz-adv-x="614" 
d="M80 0l207 253l-207 253h60l177 -219l177 219h60l-207 -253l207 -253h-60l-177 219l-177 -219h-60z" />
    <glyph glyph-name="y" unicode="y" horiz-adv-x="638" 
d="M80 506h52l199 -445l195 445h52l-322 -736h-52l101 231z" />
    <glyph glyph-name="z" unicode="z" horiz-adv-x="537" 
d="M477 506v-46l-324 -414h324v-46h-387v46l323 414h-323v46h387z" />
    <glyph glyph-name="braceleft" unicode="{" horiz-adv-x="372" 
d="M292 710v-46q-21 0 -32 -0.5t-31 -5t-30 -13.5t-18.5 -27t-8.5 -44q0 -35 14.5 -104t14.5 -98q0 -57 -36 -57q36 0 36 -57q0 -29 -14.5 -98t-14.5 -104q0 -26 8.5 -44t18.5 -27t30 -13.5t31 -5t32 -0.5v-46q-37 0 -63 4t-52 15.5t-39.5 37.5t-13.5 66q0 41 15 114.5
t15 100.5q0 34 -50 34v46q50 0 50 34q0 27 -15 100.5t-15 114.5q0 40 13.5 66t39.5 37.5t52 15.5t63 4z" />
    <glyph glyph-name="bar" unicode="|" horiz-adv-x="143" 
d="M59 -80v870h41v-870h-41z" />
    <glyph glyph-name="braceright" unicode="}" horiz-adv-x="354" 
d="M62 710q37 0 63 -4t52 -15.5t39.5 -37.5t13.5 -66q0 -41 -15 -114.5t-15 -100.5q0 -34 50 -34v-46q-50 0 -50 -34q0 -27 15 -100.5t15 -114.5q0 -40 -13.5 -66t-39.5 -37.5t-52 -15.5t-63 -4v46q21 0 32 0.5t31 5t30 13.5t18.5 27t8.5 44q0 35 -14.5 104t-14.5 98
q0 57 36 57q-36 0 -36 57q0 29 14.5 98t14.5 104q0 26 -8.5 44t-18.5 27t-30 13.5t-31 5t-32 0.5v46z" />
    <glyph glyph-name="asciitilde" unicode="~" horiz-adv-x="576" 
d="M100 223q2 37 27 64t71 27q39 0 90 -38.5t82 -38.5t47.5 16t16.5 39l42 -5q-2 -37 -27 -64t-71 -27q-39 0 -90 38t-82 38q-30 0 -46.5 -16.5t-16.5 -38.5z" />
    <glyph glyph-name="exclamdown" unicode="&#xa1;" horiz-adv-x="193" 
d="M106 480q15 0 25.5 -10.5t10.5 -24.5q0 -15 -10.5 -25.5t-25.5 -10.5t-25 10.5t-10 25.5q0 14 10 24.5t25 10.5zM83 286h45l2 -526h-49z" />
    <glyph glyph-name="cent" unicode="&#xa2;" horiz-adv-x="640" 
d="M369 470h-1v-434h1q91 0 161 73v-50q-64 -67 -162 -69v-62h-23v63q-104 8 -174.5 83.5t-70.5 179.5q0 103 71 178.5t174 82.5v63h23v-62q98 -2 162 -69v-50q-70 73 -161 73zM345 37v432q-82 -9 -138.5 -70.5t-56.5 -144.5q0 -84 56.5 -146t138.5 -71z" />
    <glyph glyph-name="sterling" unicode="&#xa3;" horiz-adv-x="667" 
d="M448 36q63 0 119 34v-48q-54 -32 -119 -32q-44 0 -115 20t-113 20q-63 0 -120 -34v49q56 31 120 31q27 0 55 -5q-1 79 -15.5 127t-46.5 90h-113v23h93q-46 56 -69.5 104.5t-23.5 105.5q0 85 62 142t159 57q101 0 158.5 -66t57.5 -168h-48q0 84 -44.5 136t-125.5 52
q-74 0 -122.5 -44t-48.5 -111q0 -52 24 -95.5t76 -107.5q1 -2 4 -5h192v-23h-175q54 -82 54 -229q92 -23 125 -23z" />
    <glyph glyph-name="currency" unicode="&#xa4;" horiz-adv-x="564" 
d="M412 420q42 -48 40.5 -111.5t-45.5 -109.5l57 -57l-17 -17l-58 57q-46 -37 -105 -35.5t-105 40.5l-61 -62l-18 17l62 62q-40 45 -41 104.5t36 105.5l-57 58l18 16l55 -56q46 44 110 45.5t112 -40.5l52 51l17 -16zM198 223q38 -37 89 -37t89 37t38 89t-38 89t-89 37
t-89 -37t-38 -89t38 -89z" />
    <glyph glyph-name="yen" unicode="&#xa5;" horiz-adv-x="747" 
d="M397 306v-45h204v-23h-204v-47h204v-23h-204v-168h-48v168h-203v23h203v47h-203v23h203v45l-249 404h55l218 -353l219 353h55z" />
    <glyph glyph-name="brokenbar" unicode="&#xa6;" horiz-adv-x="143" 
d="M59 500v290h41v-290h-41zM59 -80v290h41v-290h-41z" />
    <glyph glyph-name="section" unicode="&#xa7;" horiz-adv-x="498" 
d="M301 233q113 -42 113 -121q0 -55 -40.5 -88.5t-104.5 -33.5q-72 0 -112.5 38.5t-46.5 97.5h41q14 -95 118 -95q44 0 74.5 22t30.5 60q0 64 -126 100q-1 0 -19.5 5.5t-21.5 6.5l-20 7t-22 9.5t-19 10.5t-19 13t-14.5 15.5t-13 19t-6.5 22t-3 26.5q0 44 34 79.5t90 49.5
q-109 43 -109 122q0 54 41.5 87.5t104.5 33.5q71 0 111 -38.5t47 -96.5h-40q-14 94 -118 94q-44 0 -74.5 -22.5t-30.5 -61.5q0 -65 121 -97q85 -24 116 -47q45 -33 45 -89q0 -44 -35.5 -80t-91.5 -49zM273 452q-61 0 -101.5 -30.5t-40.5 -71.5q0 -62 77 -88q15 -4 36 -4
q62 0 102.5 30.5t40.5 70.5q0 63 -85 91q-18 2 -29 2z" />
    <glyph glyph-name="dieresis" unicode="&#xa8;" horiz-adv-x="416" 
d="M135 609q-14 0 -24.5 10t-10.5 25t10.5 25t24.5 10q15 0 25.5 -10t10.5 -25t-10.5 -25t-25.5 -10zM280 609q-14 0 -24.5 10t-10.5 25t10.5 25t24.5 10q15 0 25.5 -10t10.5 -25t-10.5 -25t-25.5 -10z" />
    <glyph glyph-name="copyright" unicode="&#xa9;" horiz-adv-x="960" 
d="M484 -10q-159 0 -271.5 112.5t-112.5 272.5t112.5 272.5t271.5 112.5q160 0 273 -112.5t113 -272.5t-113 -272.5t-273 -112.5zM485 31q143 0 243.5 100.5t100.5 243.5t-100.5 243.5t-243.5 100.5t-244 -100.5t-101 -243.5t101 -243.5t244 -100.5zM635 527q-66 59 -149 59
q-87 0 -150 -61.5t-63 -148.5q0 -89 62.5 -150.5t150.5 -61.5q83 0 149 59l18 -37q-74 -65 -171 -65q-103 0 -178.5 74t-75.5 181q0 106 75.5 179.5t178.5 73.5q97 0 171 -65z" />
    <glyph glyph-name="guillemotleft" unicode="&#xab;" horiz-adv-x="476" 
d="M278 395l-123 -158l123 -158h-55l-123 158l123 158h55zM396 395l-123 -158l123 -158h-55l-123 158l123 158h55z" />
    <glyph glyph-name="logicalnot" unicode="&#xac;" horiz-adv-x="528" 
d="M100 315h328v-131h-46v85h-282v46z" />
    <glyph glyph-name="registered" unicode="&#xae;" horiz-adv-x="960" 
d="M484 759q160 0 273 -112.5t113 -272.5t-113 -272.5t-273 -112.5q-159 0 -271.5 112.5t-112.5 272.5t112.5 272.5t271.5 112.5zM485 30q143 0 243.5 101t100.5 243q0 143 -100.5 244t-243.5 101t-244 -101t-101 -244t101 -243.5t244 -100.5zM635 457q0 -53 -27.5 -87
t-73.5 -44l101 -153h-48l-96 149h-87v-149h-41v419h134q61 0 99.5 -35.5t38.5 -99.5zM497 363q44 0 71 23.5t27 70.5t-27 71t-71 24h-93v-189h93z" />
    <glyph glyph-name="macron" unicode="&#xaf;" horiz-adv-x="405" 
d="M100 671h203v-46h-203v46z" />
    <glyph glyph-name="degree" unicode="&#xb0;" horiz-adv-x="460" 
d="M245 390q-69 0 -117 48t-48 117t48 117t117 48t117 -48t48 -117t-48 -117t-117 -48zM245 429q53 0 89.5 36.5t36.5 89.5t-36.5 89.5t-89.5 36.5t-89.5 -36.5t-36.5 -89.5t36.5 -89.5t89.5 -36.5z" />
    <glyph glyph-name="plusminus" unicode="&#xb1;" horiz-adv-x="528" 
d="M287 360h141v-46h-141v-141h-46v141h-141v46h141v141h46v-141zM100 76v46h328v-46h-328z" />
    <glyph glyph-name="acute" unicode="&#xb4;" horiz-adv-x="342" 
d="M186 716h56l-101 -138h-41z" />
    <glyph glyph-name="paragraph" unicode="&#xb6;" horiz-adv-x="595" 
d="M100 488q0 107 67 164.5t175 57.5h40v-710h-40v267q-108 0 -175 57t-67 164zM454 710h41v-710h-41v710z" />
    <glyph glyph-name="periodcentered" unicode="&#xb7;" horiz-adv-x="147" 
d="M65 217q-14 0 -24.5 10t-10.5 25t10.5 25t24.5 10q15 0 25.5 -10t10.5 -25t-10.5 -25t-25.5 -10z" />
    <glyph glyph-name="cedilla" unicode="&#xb8;" horiz-adv-x="348" 
d="M168 -49q35 -2 57.5 -17.5t22.5 -42.5q0 -74 -148 -74l11 30q104 0 104 43q0 32 -61 34l-28 -1l27 77h38z" />
    <glyph glyph-name="guillemotright" unicode="&#xbb;" horiz-adv-x="439" 
d="M118 395l123 -158l-123 -158h-55l123 158l-123 158h55zM236 395l123 -158l-123 -158h-55l123 158l-123 158h55z" />
    <glyph glyph-name="questiondown" unicode="&#xbf;" horiz-adv-x="486" 
d="M258 409q-15 0 -25.5 10.5t-10.5 25.5q0 14 10.5 24.5t25.5 10.5q14 0 24.5 -10.5t10.5 -24.5q0 -15 -10.5 -25.5t-24.5 -10.5zM410 -35h48q0 -98 -61 -156.5t-148 -58.5q-93 0 -146.5 53t-53.5 125q0 78 51 129t134 61l1 168h45l2 -204h-7q-81 0 -129 -39t-48 -110
q0 -58 40.5 -97.5t109.5 -39.5q67 0 114.5 45.5t47.5 123.5z" />
    <glyph glyph-name="Agrave" unicode="&#xc0;" horiz-adv-x="705" 
d="M383 818h-41l-101 138h56zM595 0l-70 194h-325l-70 -194h-50l256 710h53l256 -710h-50zM217 240h292l-146 405z" />
    <glyph glyph-name="Aacute" unicode="&#xc1;" horiz-adv-x="705" 
d="M485 956l-101 -138h-41l86 138h56zM595 0l-70 194h-325l-70 -194h-50l256 710h53l256 -710h-50zM217 240h292l-146 405z" />
    <glyph glyph-name="Acircumflex" unicode="&#xc2;" horiz-adv-x="705" 
d="M364 927l-78 -109h-48l104 138h44l104 -138h-48zM595 0l-70 194h-325l-70 -194h-50l256 710h53l256 -710h-50zM217 240h292l-146 405z" />
    <glyph glyph-name="Atilde" unicode="&#xc3;" horiz-adv-x="705" 
d="M281 904q-30 0 -46.5 -16.5t-16.5 -38.5l-43 6q2 37 27 64t71 27q39 0 90 -38.5t82 -38.5t47.5 16t16.5 39l42 -5q-2 -37 -27 -64t-71 -27q-39 0 -90 38t-82 38zM595 0l-70 194h-325l-70 -194h-50l256 710h53l256 -710h-50zM217 240h292l-146 405z" />
    <glyph glyph-name="Adieresis" unicode="&#xc4;" horiz-adv-x="705" 
d="M290 849q-14 0 -24.5 10.5t-10.5 24.5q0 15 10.5 25.5t24.5 10.5q15 0 25.5 -10.5t10.5 -25.5q0 -14 -10.5 -24.5t-25.5 -10.5zM435 849q-14 0 -24.5 10.5t-10.5 24.5q0 15 10.5 25.5t24.5 10.5q15 0 25.5 -10.5t10.5 -25.5q0 -14 -10.5 -24.5t-25.5 -10.5zM595 0
l-70 194h-325l-70 -194h-50l256 710h53l256 -710h-50zM217 240h292l-146 405z" />
    <glyph glyph-name="Aring" unicode="&#xc5;" horiz-adv-x="705" 
d="M363 826q-29 0 -49.5 20.5t-20.5 49.5t20.5 49.5t49.5 20.5t49 -20.5t20 -49.5t-20 -49.5t-49 -20.5zM363 936q-17 0 -29 -11.5t-12 -28.5t12 -28.5t29 -11.5t28.5 12t11.5 28t-11.5 28t-28.5 12zM595 0l-70 194h-325l-70 -194h-50l256 710h53l256 -710h-50zM217 240h292
l-146 405z" />
    <glyph glyph-name="AE" unicode="&#xc6;" horiz-adv-x="960" 
d="M918 664h-315v-269h241v-46h-241v-303h315v-46h-363v195h-312l-110 -195h-53l401 710h437v-46zM555 664h-47l-239 -423h286v423z" />
    <glyph glyph-name="Ccedilla" unicode="&#xc7;" horiz-adv-x="724" 
d="M448 674q-128 0 -219 -93t-91 -226t91 -226t219 -93q120 0 206 77v-51q-77 -69 -200 -72l-18 -39q35 -2 57.5 -17.5t22.5 -42.5q0 -74 -148 -74l11 30q104 0 104 43q0 32 -61 34l-28 -1l24 68q-140 10 -234 114.5t-94 249.5q0 152 102 258.5t252 106.5q130 0 210 -72v-51
q-86 77 -206 77z" />
    <glyph glyph-name="Egrave" unicode="&#xc8;" horiz-adv-x="499" 
d="M279 818h-41l-101 138h56zM441 664h-315v-269h241v-46h-241v-303h315v-46h-363v710h363v-46z" />
    <glyph glyph-name="Eacute" unicode="&#xc9;" horiz-adv-x="499" 
d="M380 956l-101 -138h-41l86 138h56zM441 664h-315v-269h241v-46h-241v-303h315v-46h-363v710h363v-46z" />
    <glyph glyph-name="Ecircumflex" unicode="&#xca;" horiz-adv-x="499" 
d="M259 927l-78 -109h-48l104 138h44l104 -138h-48zM441 664h-315v-269h241v-46h-241v-303h315v-46h-363v710h363v-46z" />
    <glyph glyph-name="Edieresis" unicode="&#xcb;" horiz-adv-x="499" 
d="M186 849q-14 0 -24.5 10.5t-10.5 24.5q0 15 10.5 25.5t24.5 10.5q15 0 25.5 -10.5t10.5 -25.5q0 -14 -10.5 -24.5t-25.5 -10.5zM331 849q-14 0 -24.5 10.5t-10.5 24.5q0 15 10.5 25.5t24.5 10.5q15 0 25.5 -10.5t10.5 -25.5q0 -14 -10.5 -24.5t-25.5 -10.5zM441 664h-315
v-269h241v-46h-241v-303h315v-46h-363v710h363v-46z" />
    <glyph glyph-name="Igrave" unicode="&#xcc;" horiz-adv-x="188" 
d="M38 956l86 -138h-41l-101 138h56zM80 0v710h48v-710h-48z" />
    <glyph glyph-name="Iacute" unicode="&#xcd;" horiz-adv-x="188" 
d="M170 956h56l-101 -138h-41zM80 0v710h48v-710h-48z" />
    <glyph glyph-name="Icircumflex" unicode="&#xce;" horiz-adv-x="188" 
d="M127 956l104 -138h-48l-78 109l-78 -109h-48l104 138h44zM80 0v710h48v-710h-48z" />
    <glyph glyph-name="Idieresis" unicode="&#xcf;" horiz-adv-x="188" 
d="M31 849q-14 0 -24.5 10.5t-10.5 24.5q0 15 10.5 25.5t24.5 10.5q15 0 25.5 -10.5t10.5 -25.5q0 -14 -10.5 -24.5t-25.5 -10.5zM176 849q-14 0 -24.5 10.5t-10.5 24.5q0 15 10.5 25.5t24.5 10.5q15 0 25.5 -10.5t10.5 -25.5q0 -14 -10.5 -24.5t-25.5 -10.5zM80 0v710h48
v-710h-48z" />
    <glyph glyph-name="Eth" unicode="&#xd0;" horiz-adv-x="682" 
d="M292 710q149 0 240.5 -101.5t91.5 -253.5t-91.5 -253.5t-240.5 -101.5h-214v332h-107v46h107v332h214zM292 46q125 0 204.5 87t79.5 222t-79.5 222t-204.5 87h-166v-286h173v-46h-173v-286h166z" />
    <glyph glyph-name="Ntilde" unicode="&#xd1;" horiz-adv-x="681" 
d="M277 904q-30 0 -46.5 -16.5t-16.5 -38.5l-43 6q2 37 27 64t71 27q39 0 90 -38.5t82 -38.5t47.5 16t16.5 39l42 -5q-2 -37 -27 -64t-71 -27q-39 0 -90 38t-82 38zM573 710h48v-710h-48l-445 628v-628h-48v710h48l445 -628v628z" />
    <glyph glyph-name="Ograve" unicode="&#xd2;" horiz-adv-x="871" 
d="M379 956l86 -138h-41l-101 138h56zM445 -10q-150 0 -252.5 107t-102.5 258t102.5 258t252.5 107t253 -107t103 -258t-103 -258t-253 -107zM445 36q128 0 217.5 94t89.5 225t-89.5 225t-217.5 94t-217.5 -94t-89.5 -225t89.5 -225t217.5 -94z" />
    <glyph glyph-name="Oacute" unicode="&#xd3;" horiz-adv-x="871" 
d="M511 956h56l-101 -138h-41zM445 -10q-150 0 -252.5 107t-102.5 258t102.5 258t252.5 107t253 -107t103 -258t-103 -258t-253 -107zM445 36q128 0 217.5 94t89.5 225t-89.5 225t-217.5 94t-217.5 -94t-89.5 -225t89.5 -225t217.5 -94z" />
    <glyph glyph-name="Ocircumflex" unicode="&#xd4;" horiz-adv-x="871" 
d="M446 927l-78 -109h-48l104 138h44l104 -138h-48zM445 720q150 0 253 -107t103 -258t-103 -258t-253 -107t-252.5 107t-102.5 258t102.5 258t252.5 107zM445 36q128 0 217.5 94t89.5 225t-89.5 225t-217.5 94t-217.5 -94t-89.5 -225t89.5 -225t217.5 -94z" />
    <glyph glyph-name="Otilde" unicode="&#xd5;" horiz-adv-x="871" 
d="M257 855q2 37 27 64t71 27q39 0 90 -38.5t82 -38.5t47.5 16t16.5 39l42 -5q-2 -37 -27 -64t-71 -27q-39 0 -90 38t-82 38q-30 0 -46.5 -16.5t-16.5 -38.5zM445 -10q-150 0 -252.5 107t-102.5 258t102.5 258t252.5 107t253 -107t103 -258t-103 -258t-253 -107zM445 36
q128 0 217.5 94t89.5 225t-89.5 225t-217.5 94t-217.5 -94t-89.5 -225t89.5 -225t217.5 -94z" />
    <glyph glyph-name="Odieresis" unicode="&#xd6;" horiz-adv-x="871" 
d="M372 849q-14 0 -24.5 10.5t-10.5 24.5q0 15 10.5 25.5t24.5 10.5q15 0 25.5 -10.5t10.5 -25.5q0 -14 -10.5 -24.5t-25.5 -10.5zM517 849q-14 0 -24.5 10.5t-10.5 24.5q0 15 10.5 25.5t24.5 10.5q15 0 25.5 -10.5t10.5 -25.5q0 -14 -10.5 -24.5t-25.5 -10.5zM445 -10
q-150 0 -252.5 107t-102.5 258t102.5 258t252.5 107t253 -107t103 -258t-103 -258t-253 -107zM445 36q128 0 217.5 94t89.5 225t-89.5 225t-217.5 94t-217.5 -94t-89.5 -225t89.5 -225t217.5 -94z" />
    <glyph glyph-name="multiply" unicode="&#xd7;" horiz-adv-x="459" 
d="M361 389l-100 -100l100 -101l-32 -32l-100 101l-100 -100l-32 32l100 100l-100 99l32 32l100 -99l100 100z" />
    <glyph glyph-name="Oslash" unicode="&#xd8;" horiz-adv-x="871" 
d="M672 638q60 -52 94.5 -126t34.5 -157q0 -151 -103 -258t-253 -107q-117 0 -210 69l-75 -99h-29l86 114q-60 51 -93.5 124.5t-33.5 156.5q0 151 102.5 258t252.5 107q118 0 208 -68l74 98h30zM138 355q0 -71 29 -134.5t79 -108.5l378 502q-81 60 -179 60
q-128 0 -217.5 -94t-89.5 -225zM445 36q128 0 217.5 94t89.5 225q0 72 -29 135.5t-80 108.5l-379 -501q81 -62 181 -62z" />
    <glyph glyph-name="Ugrave" unicode="&#xd9;" horiz-adv-x="667" 
d="M278 956l86 -138h-41l-101 138h56zM609 279q0 -143 -71.5 -216t-193.5 -73q-123 0 -194.5 73t-71.5 216v431h48v-431q0 -124 59 -183.5t159 -59.5q99 0 158 59.5t59 183.5v431h48v-431z" />
    <glyph glyph-name="Uacute" unicode="&#xda;" horiz-adv-x="667" 
d="M409 956h56l-101 -138h-41zM609 279q0 -143 -71.5 -216t-193.5 -73q-123 0 -194.5 73t-71.5 216v431h48v-431q0 -124 59 -183.5t159 -59.5q99 0 158 59.5t59 183.5v431h48v-431z" />
    <glyph glyph-name="Ucircumflex" unicode="&#xdb;" horiz-adv-x="667" 
d="M344 927l-78 -109h-48l104 138h44l104 -138h-48zM561 710h48v-431q0 -143 -71.5 -216t-193.5 -73q-123 0 -194.5 73t-71.5 216v431h48v-431q0 -124 59 -183.5t159 -59.5q99 0 158 59.5t59 183.5v431z" />
    <glyph glyph-name="Udieresis" unicode="&#xdc;" horiz-adv-x="667" 
d="M271 849q-14 0 -24.5 10.5t-10.5 24.5q0 15 10.5 25.5t24.5 10.5q15 0 25.5 -10.5t10.5 -25.5q0 -14 -10.5 -24.5t-25.5 -10.5zM416 849q-14 0 -24.5 10.5t-10.5 24.5q0 15 10.5 25.5t24.5 10.5q15 0 25.5 -10.5t10.5 -25.5q0 -14 -10.5 -24.5t-25.5 -10.5zM609 279
q0 -143 -71.5 -216t-193.5 -73q-123 0 -194.5 73t-71.5 216v431h48v-431q0 -124 59 -183.5t159 -59.5q99 0 158 59.5t59 183.5v431h48v-431z" />
    <glyph glyph-name="Yacute" unicode="&#xdd;" horiz-adv-x="667" 
d="M465 956l-101 -138h-41l86 138h56zM562 710h55l-250 -404v-306h-48v306l-249 404h55l218 -353z" />
    <glyph glyph-name="Thorn" unicode="&#xde;" horiz-adv-x="564" 
d="M276 582q108 0 176 -58t68 -167q0 -108 -68 -166t-176 -58h-158v-133h-48v718h48v-136h158zM276 179q89 0 142.5 44.5t53.5 133.5t-53.5 134t-142.5 45h-158v-357h158z" />
    <glyph glyph-name="germandbls" unicode="&#xdf;" horiz-adv-x="616" 
d="M404 405q63 -24 102.5 -76.5t39.5 -126.5q0 -87 -51 -146t-149 -59q-77 0 -138 43v49q61 -46 133 -46q78 0 117.5 45.5t39.5 115.5q0 81 -53 127.5t-131 46.5h-27v43h27q40 0 65 20.5t32 43.5t7 48q0 56 -36 98.5t-98 42.5q-69 0 -107.5 -53t-38.5 -138v-483h-48v483
q0 102 50 169.5t145 67.5q84 0 132.5 -56.5t48.5 -126.5q0 -35 -15 -72t-47 -60z" />
    <glyph glyph-name="agrave" unicode="&#xe0;" horiz-adv-x="696" 
d="M292 752l86 -138h-41l-101 138h56zM90 254q0 108 76.5 185t184.5 77q76 0 137 -40.5t89 -105.5l2 136h47v-506h-47l-2 137q-27 -66 -88.5 -106.5t-137.5 -40.5q-109 0 -185 77t-76 187zM138 254q0 -90 64 -154t155 -64q90 0 153.5 64t63.5 154q0 89 -63.5 152.5
t-153.5 63.5q-91 0 -155 -63.5t-64 -152.5z" />
    <glyph glyph-name="aacute" unicode="&#xe1;" horiz-adv-x="696" 
d="M424 752h56l-101 -138h-41zM90 254q0 108 76.5 185t184.5 77q76 0 137 -40.5t89 -105.5l2 136h47v-506h-47l-2 137q-27 -66 -88.5 -106.5t-137.5 -40.5q-109 0 -185 77t-76 187zM138 254q0 -90 64 -154t155 -64q90 0 153.5 64t63.5 154q0 89 -63.5 152.5t-153.5 63.5
q-91 0 -155 -63.5t-64 -152.5z" />
    <glyph glyph-name="acircumflex" unicode="&#xe2;" horiz-adv-x="696" 
d="M359 723l-78 -109h-48l104 138h44l104 -138h-48zM579 506h47v-506h-47l-2 137q-27 -66 -88.5 -106.5t-137.5 -40.5q-109 0 -185 77t-76 187q0 108 76.5 185t184.5 77q76 0 137 -40.5t89 -105.5zM357 36q90 0 153.5 64t63.5 154q0 89 -63.5 152.5t-153.5 63.5
q-91 0 -155 -63.5t-64 -152.5q0 -90 64 -154t155 -64z" />
    <glyph glyph-name="atilde" unicode="&#xe3;" horiz-adv-x="696" 
d="M170 651q2 37 27 64t71 27q39 0 90 -38.5t82 -38.5t47.5 16t16.5 39l42 -5q-2 -37 -27 -64t-71 -27q-39 0 -90 38t-82 38q-30 0 -46.5 -16.5t-16.5 -38.5zM90 254q0 108 76.5 185t184.5 77q76 0 137 -40.5t89 -105.5l2 136h47v-506h-47l-2 137q-27 -66 -88.5 -106.5
t-137.5 -40.5q-109 0 -185 77t-76 187zM138 254q0 -90 64 -154t155 -64q90 0 153.5 64t63.5 154q0 89 -63.5 152.5t-153.5 63.5q-91 0 -155 -63.5t-64 -152.5z" />
    <glyph glyph-name="adieresis" unicode="&#xe4;" horiz-adv-x="696" 
d="M285 645q-14 0 -24.5 10.5t-10.5 24.5q0 15 10.5 25.5t24.5 10.5q15 0 25.5 -10.5t10.5 -25.5q0 -14 -10.5 -24.5t-25.5 -10.5zM430 645q-14 0 -24.5 10.5t-10.5 24.5q0 15 10.5 25.5t24.5 10.5q15 0 25.5 -10.5t10.5 -25.5q0 -14 -10.5 -24.5t-25.5 -10.5zM90 254
q0 108 76.5 185t184.5 77q76 0 137 -40.5t89 -105.5l2 136h47v-506h-47l-2 137q-27 -66 -88.5 -106.5t-137.5 -40.5q-109 0 -185 77t-76 187zM138 254q0 -90 64 -154t155 -64q90 0 153.5 64t63.5 154q0 89 -63.5 152.5t-153.5 63.5q-91 0 -155 -63.5t-64 -152.5z" />
    <glyph glyph-name="aring" unicode="&#xe5;" horiz-adv-x="696" 
d="M358 622q-29 0 -49.5 20.5t-20.5 49.5t20.5 49.5t49.5 20.5t49 -20.5t20 -49.5t-20 -49.5t-49 -20.5zM358 652q16 0 28 12t12 28t-12 28t-28 12q-17 0 -29 -11.5t-12 -28.5t12 -28.5t29 -11.5zM90 254q0 108 76.5 185t184.5 77q76 0 137 -40.5t89 -105.5l2 136h47v-506
h-47l-2 137q-27 -66 -88.5 -106.5t-137.5 -40.5q-109 0 -185 77t-76 187zM138 254q0 -90 64 -154t155 -64q90 0 153.5 64t63.5 154q0 89 -63.5 152.5t-153.5 63.5q-91 0 -155 -63.5t-64 -152.5z" />
    <glyph glyph-name="ae" unicode="&#xe6;" horiz-adv-x="1172" 
d="M1102 249v-11h-458q2 -91 61.5 -147.5t150.5 -56.5q70 0 117 33t68 79l43 -7q-20 -60 -80.5 -104.5t-147.5 -44.5q-77 0 -137.5 36.5t-92.5 99.5v-126h-47l-2 137q-27 -66 -88.5 -106.5t-137.5 -40.5q-109 0 -185 77t-76 187q0 108 76.5 185t184.5 77q76 0 137 -40.5
t89 -105.5l2 136h47v-126q32 62 90.5 99t132.5 37q112 0 182.5 -78.5t70.5 -188.5zM849 472q-86 0 -144 -57t-61 -140h410q-6 81 -62 139t-143 58zM357 36q90 0 153.5 64t63.5 154q0 89 -63.5 152.5t-153.5 63.5q-91 0 -155 -63.5t-64 -152.5q0 -90 64 -154t155 -64z" />
    <glyph glyph-name="ccedilla" unicode="&#xe7;" horiz-adv-x="590" 
d="M359 470q-89 0 -154 -63.5t-65 -152.5q0 -91 65 -154.5t154 -63.5q91 0 161 73v-50q-66 -69 -166 -69h-3l-18 -39q35 -2 57.5 -17.5t22.5 -42.5q0 -74 -148 -74l11 30q104 0 104 43q0 32 -61 34l-28 -1l24 70q-96 14 -160.5 88t-64.5 173q0 108 77 185t187 77
q100 0 166 -69v-50q-70 73 -161 73z" />
    <glyph glyph-name="egrave" unicode="&#xe8;" horiz-adv-x="666" 
d="M363 614h-41l-101 138h56zM596 249v-11h-458q3 -92 62.5 -148t150.5 -56q70 0 117 33t67 79l43 -7q-19 -59 -79.5 -104t-148.5 -45q-112 0 -186 74.5t-74 191.5q0 108 72 184t181 76q113 0 183 -78.5t70 -188.5zM343 472q-86 0 -144 -57t-61 -140h409q-5 82 -61 139.5
t-143 57.5z" />
    <glyph glyph-name="eacute" unicode="&#xe9;" horiz-adv-x="666" 
d="M465 752l-101 -138h-41l86 138h56zM596 249v-11h-458q3 -92 62.5 -148t150.5 -56q70 0 117 33t67 79l43 -7q-19 -59 -79.5 -104t-148.5 -45q-112 0 -186 74.5t-74 191.5q0 108 72 184t181 76q113 0 183 -78.5t70 -188.5zM343 472q-86 0 -144 -57t-61 -140h409
q-5 82 -61 139.5t-143 57.5z" />
    <glyph glyph-name="ecircumflex" unicode="&#xea;" horiz-adv-x="666" 
d="M344 723l-78 -109h-48l104 138h44l104 -138h-48zM596 249v-11h-458q3 -92 62.5 -148t150.5 -56q70 0 117 33t67 79l43 -7q-19 -59 -79.5 -104t-148.5 -45q-112 0 -186 74.5t-74 191.5q0 108 72 184t181 76q113 0 183 -78.5t70 -188.5zM343 472q-86 0 -144 -57t-61 -140
h409q-5 82 -61 139.5t-143 57.5z" />
    <glyph glyph-name="edieresis" unicode="&#xeb;" horiz-adv-x="666" 
d="M270 645q-14 0 -24.5 10.5t-10.5 24.5q0 15 10.5 25.5t24.5 10.5q15 0 25.5 -10.5t10.5 -25.5q0 -14 -10.5 -24.5t-25.5 -10.5zM415 645q-14 0 -24.5 10.5t-10.5 24.5q0 15 10.5 25.5t24.5 10.5q15 0 25.5 -10.5t10.5 -25.5q0 -14 -10.5 -24.5t-25.5 -10.5zM596 249v-11
h-458q3 -92 62.5 -148t150.5 -56q70 0 117 33t67 79l43 -7q-19 -59 -79.5 -104t-148.5 -45q-112 0 -186 74.5t-74 191.5q0 108 72 184t181 76q113 0 183 -78.5t70 -188.5zM343 472q-86 0 -144 -57t-61 -140h409q-5 82 -61 139.5t-143 57.5z" />
    <glyph glyph-name="igrave" unicode="&#xec;" horiz-adv-x="168" 
d="M18 752l86 -138h-41l-101 138h56zM108 506v-506h-48v506h48z" />
    <glyph glyph-name="iacute" unicode="&#xed;" horiz-adv-x="168" 
d="M149 752h56l-101 -138h-41zM108 506v-506h-48v506h48z" />
    <glyph glyph-name="icircumflex" unicode="&#xee;" horiz-adv-x="168" 
d="M106 752l104 -138h-48l-78 109l-78 -109h-48l104 138h44zM60 0v506h48v-506h-48z" />
    <glyph glyph-name="idieresis" unicode="&#xef;" horiz-adv-x="168" 
d="M11 605q-15 0 -25 10.5t-10 24.5q0 15 10 25.5t25 10.5t25.5 -10.5t10.5 -25.5q0 -14 -10.5 -24.5t-25.5 -10.5zM156 605q-14 0 -24.5 10.5t-10.5 24.5q0 15 10.5 25.5t24.5 10.5q15 0 25.5 -10.5t10.5 -25.5q0 -14 -10.5 -24.5t-25.5 -10.5zM108 506v-506h-48v506h48z
" />
    <glyph glyph-name="eth" unicode="&#xf0;" horiz-adv-x="644" 
d="M388 626q86 -62 136 -161t50 -231q0 -103 -70.5 -173.5t-172.5 -70.5q-100 0 -170.5 70t-70.5 168t70.5 168t170.5 70q95 0 166 -64q-42 122 -148 194l-123 -93v30l101 76q-63 38 -143 55v46q101 -17 184 -70l105 79v-29zM525 228v10h-3q0 6 -0.5 16t-0.5 15
q-14 65 -67 108t-123 43q-80 0 -136.5 -56.5t-56.5 -135.5q0 -80 56.5 -136t136.5 -56q81 0 137.5 56t56.5 136z" />
    <glyph glyph-name="ntilde" unicode="&#xf1;" horiz-adv-x="599" 
d="M229 700q-30 0 -46.5 -16.5t-16.5 -38.5l-43 6q2 37 27 64t71 27q39 0 90 -38.5t82 -38.5t47.5 16t16.5 39l42 -5q-2 -37 -27 -64t-71 -27q-39 0 -90 38t-82 38zM347 516q87 0 138.5 -57.5t51.5 -165.5v-293h-48v278q0 97 -42.5 144.5t-112.5 47.5q-42 0 -76.5 -14.5
t-55.5 -36t-36 -48.5t-21 -50.5t-7 -43.5v-277h-48v506h45l3 -109q74 119 209 119z" />
    <glyph glyph-name="ograve" unicode="&#xf2;" horiz-adv-x="692" 
d="M291 752l86 -138h-41l-101 138h56zM357 -10q-112 0 -189.5 77t-77.5 187q0 108 78 185t189 77t188 -77t77 -185q0 -110 -77 -187t-188 -77zM357 36q90 0 153.5 64t63.5 154q0 89 -63.5 152.5t-153.5 63.5q-91 0 -155 -63.5t-64 -152.5q0 -90 64 -154t155 -64z" />
    <glyph glyph-name="oacute" unicode="&#xf3;" horiz-adv-x="692" 
d="M423 752h56l-101 -138h-41zM357 -10q-112 0 -189.5 77t-77.5 187q0 108 78 185t189 77t188 -77t77 -185q0 -110 -77 -187t-188 -77zM357 36q90 0 153.5 64t63.5 154q0 89 -63.5 152.5t-153.5 63.5q-91 0 -155 -63.5t-64 -152.5q0 -90 64 -154t155 -64z" />
    <glyph glyph-name="ocircumflex" unicode="&#xf4;" horiz-adv-x="692" 
d="M358 723l-78 -109h-48l104 138h44l104 -138h-48zM357 516q111 0 188 -77t77 -185q0 -110 -77 -187t-188 -77q-112 0 -189.5 77t-77.5 187q0 108 78 185t189 77zM357 36q90 0 153.5 64t63.5 154q0 89 -63.5 152.5t-153.5 63.5q-91 0 -155 -63.5t-64 -152.5q0 -90 64 -154
t155 -64z" />
    <glyph glyph-name="otilde" unicode="&#xf5;" horiz-adv-x="692" 
d="M169 651q2 37 27 64t71 27q39 0 90 -38.5t82 -38.5t47.5 16t16.5 39l42 -5q-2 -37 -27 -64t-71 -27q-39 0 -90 38t-82 38q-30 0 -46.5 -16.5t-16.5 -38.5zM357 -10q-112 0 -189.5 77t-77.5 187q0 108 78 185t189 77t188 -77t77 -185q0 -110 -77 -187t-188 -77zM357 36
q90 0 153.5 64t63.5 154q0 89 -63.5 152.5t-153.5 63.5q-91 0 -155 -63.5t-64 -152.5q0 -90 64 -154t155 -64z" />
    <glyph glyph-name="odieresis" unicode="&#xf6;" horiz-adv-x="692" 
d="M284 645q-14 0 -24.5 10.5t-10.5 24.5q0 15 10.5 25.5t24.5 10.5q15 0 25.5 -10.5t10.5 -25.5q0 -14 -10.5 -24.5t-25.5 -10.5zM429 645q-14 0 -24.5 10.5t-10.5 24.5q0 15 10.5 25.5t24.5 10.5q15 0 25.5 -10.5t10.5 -25.5q0 -14 -10.5 -24.5t-25.5 -10.5zM357 -10
q-112 0 -189.5 77t-77.5 187q0 108 78 185t189 77t188 -77t77 -185q0 -110 -77 -187t-188 -77zM357 36q90 0 153.5 64t63.5 154q0 89 -63.5 152.5t-153.5 63.5q-91 0 -155 -63.5t-64 -152.5q0 -90 64 -154t155 -64z" />
    <glyph glyph-name="divide" unicode="&#xf7;" horiz-adv-x="526" 
d="M268 366q-15 0 -25 10t-10 25t10 25.5t25 10.5t25 -10.5t10 -25.5t-10 -25t-25 -10zM104 311h328v-46h-328v46zM268 128q-15 0 -25 10.5t-10 25.5t10 25t25 10t25 -10t10 -25t-10 -25.5t-25 -10.5z" />
    <glyph glyph-name="oslash" unicode="&#xf8;" horiz-adv-x="692" 
d="M525 457q97 -79 97 -203q0 -110 -77 -187t-188 -77q-83 0 -151 46l-33 -44h-29l43 58q-45 37 -71 90.5t-26 113.5q0 108 78 185t189 77q81 0 149 -45l33 43h30zM138 254q0 -101 78 -166l262 345q-56 37 -121 37q-91 0 -155 -63.5t-64 -152.5zM357 36q90 0 153 64t63 154
q0 99 -76 165l-262 -346q56 -37 122 -37z" />
    <glyph glyph-name="ugrave" unicode="&#xf9;" horiz-adv-x="599" 
d="M334 614h-41l-101 138h56zM481 506h48v-506h-46l-2 109q-74 -119 -209 -119q-87 0 -138.5 57.5t-51.5 165.5v293h48v-278q0 -97 42.5 -144.5t112.5 -47.5q43 0 78.5 15t56.5 38t35.5 51t20 51.5t5.5 43.5v271z" />
    <glyph glyph-name="uacute" unicode="&#xfa;" horiz-adv-x="599" 
d="M436 752l-101 -138h-41l86 138h56zM481 506h48v-506h-46l-2 109q-74 -119 -209 -119q-87 0 -138.5 57.5t-51.5 165.5v293h48v-278q0 -97 42.5 -144.5t112.5 -47.5q43 0 78.5 15t56.5 38t35.5 51t20 51.5t5.5 43.5v271z" />
    <glyph glyph-name="ucircumflex" unicode="&#xfb;" horiz-adv-x="599" 
d="M315 723l-78 -109h-48l104 138h44l104 -138h-48zM481 506h48v-506h-46l-2 109q-74 -119 -209 -119q-87 0 -138.5 57.5t-51.5 165.5v293h48v-278q0 -97 42.5 -144.5t112.5 -47.5q43 0 78.5 15t56.5 38t35.5 51t20 51.5t5.5 43.5v271z" />
    <glyph glyph-name="udieresis" unicode="&#xfc;" horiz-adv-x="599" 
d="M241 645q-14 0 -24.5 10.5t-10.5 24.5q0 15 10.5 25.5t24.5 10.5q15 0 25.5 -10.5t10.5 -25.5q0 -14 -10.5 -24.5t-25.5 -10.5zM386 645q-14 0 -24.5 10.5t-10.5 24.5q0 15 10.5 25.5t24.5 10.5q15 0 25.5 -10.5t10.5 -25.5q0 -14 -10.5 -24.5t-25.5 -10.5zM481 506h48
v-506h-46l-2 109q-74 -119 -209 -119q-87 0 -138.5 57.5t-51.5 165.5v293h48v-278q0 -97 42.5 -144.5t112.5 -47.5q43 0 78.5 15t56.5 38t35.5 51t20 51.5t5.5 43.5v271z" />
    <glyph glyph-name="yacute" unicode="&#xfd;" horiz-adv-x="638" 
d="M398 752h56l-101 -138h-41zM80 506h52l199 -445l195 445h52l-322 -736h-52l101 231z" />
    <glyph glyph-name="thorn" unicode="&#xfe;" horiz-adv-x="692" 
d="M90 -230v980h48v-378q28 65 88.5 104.5t134.5 39.5q108 0 184.5 -77t76.5 -185q0 -110 -76 -187t-185 -77q-74 0 -134.5 40t-88.5 105v-365h-48zM136 254q0 -90 63.5 -154t153.5 -64q91 0 155 64t64 154q0 89 -64 152.5t-155 63.5q-90 0 -153.5 -63.5t-63.5 -152.5z" />
    <glyph glyph-name="ydieresis" unicode="&#xff;" horiz-adv-x="638" 
d="M260 645q-14 0 -24.5 10.5t-10.5 24.5q0 15 10.5 25.5t24.5 10.5q15 0 25.5 -10.5t10.5 -25.5q0 -14 -10.5 -24.5t-25.5 -10.5zM405 645q-14 0 -24.5 10.5t-10.5 24.5q0 15 10.5 25.5t24.5 10.5q15 0 25.5 -10.5t10.5 -25.5q0 -14 -10.5 -24.5t-25.5 -10.5zM80 506h52
l199 -445l195 445h52l-322 -736h-52l101 231z" />
    <glyph glyph-name="Amacron" unicode="&#x100;" horiz-adv-x="705" 
d="M464 911v-46h-203v46h203zM595 0l-70 194h-325l-70 -194h-50l256 710h53l256 -710h-50zM217 240h292l-146 405z" />
    <glyph glyph-name="amacron" unicode="&#x101;" horiz-adv-x="696" 
d="M256 707h203v-46h-203v46zM90 254q0 108 76.5 185t184.5 77q76 0 137 -40.5t89 -105.5l2 136h47v-506h-47l-2 137q-27 -66 -88.5 -106.5t-137.5 -40.5q-109 0 -185 77t-76 187zM138 254q0 -90 64 -154t155 -64q90 0 153.5 64t63.5 154q0 89 -63.5 152.5t-153.5 63.5
q-91 0 -155 -63.5t-64 -152.5z" />
    <glyph glyph-name="Abreve" unicode="&#x102;" horiz-adv-x="705" 
d="M363 818q-67 0 -108.5 41t-41.5 97h41q0 -38 27.5 -69.5t81.5 -31.5t82 31.5t28 69.5h40q0 -56 -41.5 -97t-108.5 -41zM595 0l-70 194h-325l-70 -194h-50l256 710h53l256 -710h-50zM217 240h292l-146 405z" />
    <glyph glyph-name="abreve" unicode="&#x103;" horiz-adv-x="696" 
d="M508 752q0 -56 -41.5 -97t-108.5 -41t-108.5 41t-41.5 97h41q0 -38 27.5 -69.5t81.5 -31.5t82 31.5t28 69.5h40zM90 254q0 108 76.5 185t184.5 77q76 0 137 -40.5t89 -105.5l2 136h47v-506h-47l-2 137q-27 -66 -88.5 -106.5t-137.5 -40.5q-109 0 -185 77t-76 187z
M138 254q0 -90 64 -154t155 -64q90 0 153.5 64t63.5 154q0 89 -63.5 152.5t-153.5 63.5q-91 0 -155 -63.5t-64 -152.5z" />
    <glyph glyph-name="Aogonek" unicode="&#x104;" horiz-adv-x="705" 
d="M639 -103q35 0 68 27v-43q-30 -30 -75 -30q-52 0 -65.5 48t33.5 101h-5l-70 194h-325l-70 -194h-50l256 710h53l256 -710h-5q-25 -25 -32.5 -49.5t1.5 -39t30 -14.5zM217 240h292l-146 405z" />
    <glyph glyph-name="aogonek" unicode="&#x105;" horiz-adv-x="696" 
d="M622 -103q35 0 68 27v-43q-30 -30 -75 -30q-52 0 -65.5 48t33.5 101h-4l-2 137q-27 -66 -88.5 -106.5t-137.5 -40.5q-109 0 -185 77t-76 187q0 108 76.5 185t184.5 77q76 0 137 -40.5t89 -105.5l2 136h47v-506h-3q-25 -25 -32.5 -49.5t1.5 -39t30 -14.5zM357 36
q90 0 153.5 64t63.5 154q0 89 -63.5 152.5t-153.5 63.5q-91 0 -155 -63.5t-64 -152.5q0 -90 64 -154t155 -64z" />
    <glyph glyph-name="Cacute" unicode="&#x106;" horiz-adv-x="724" 
d="M504 956h56l-101 -138h-41zM654 597q-86 77 -206 77q-128 0 -219 -93t-91 -226t91 -226t219 -93q120 0 206 77v-51q-80 -72 -210 -72q-150 0 -252 106.5t-102 258.5t102 258.5t252 106.5q130 0 210 -72v-51z" />
    <glyph glyph-name="cacute" unicode="&#x107;" horiz-adv-x="590" 
d="M415 752h56l-101 -138h-41zM520 397q-70 73 -161 73q-89 0 -154 -63.5t-65 -152.5q0 -91 65 -154.5t154 -63.5q91 0 161 73v-50q-66 -69 -166 -69q-110 0 -187 77.5t-77 186.5q0 108 77 185t187 77q100 0 166 -69v-50z" />
    <glyph glyph-name="Cdotaccent" unicode="&#x10a;" horiz-adv-x="724" 
d="M438 849q-14 0 -24.5 10.5t-10.5 24.5q0 15 10.5 25.5t24.5 10.5q15 0 25.5 -10.5t10.5 -25.5q0 -14 -10.5 -24.5t-25.5 -10.5zM654 597q-86 77 -206 77q-128 0 -219 -93t-91 -226t91 -226t219 -93q120 0 206 77v-51q-80 -72 -210 -72q-150 0 -252 106.5t-102 258.5
t102 258.5t252 106.5q130 0 210 -72v-51z" />
    <glyph glyph-name="cdotaccent" unicode="&#x10b;" horiz-adv-x="590" 
d="M349 645q-14 0 -24.5 10.5t-10.5 24.5q0 15 10.5 25.5t24.5 10.5q15 0 25.5 -10.5t10.5 -25.5q0 -14 -10.5 -24.5t-25.5 -10.5zM520 397q-70 73 -161 73q-89 0 -154 -63.5t-65 -152.5q0 -91 65 -154.5t154 -63.5q91 0 161 73v-50q-66 -69 -166 -69q-110 0 -187 77.5
t-77 186.5q0 108 77 185t187 77q100 0 166 -69v-50z" />
    <glyph glyph-name="Ccaron" unicode="&#x10c;" horiz-adv-x="724" 
d="M414 818l-104 138h48l78 -109l78 109h48l-104 -138h-44zM448 674q-128 0 -219 -93t-91 -226t91 -226t219 -93q120 0 206 77v-51q-80 -72 -210 -72q-150 0 -252 106.5t-102 258.5t102 258.5t252 106.5q130 0 210 -72v-51q-86 77 -206 77z" />
    <glyph glyph-name="ccaron" unicode="&#x10d;" horiz-adv-x="590" 
d="M325 614l-104 138h48l78 -109l78 109h48l-104 -138h-44zM359 470q-89 0 -154 -63.5t-65 -152.5q0 -91 65 -154.5t154 -63.5q91 0 161 73v-50q-66 -69 -166 -69q-110 0 -187 77.5t-77 186.5q0 108 77 185t187 77q100 0 166 -69v-50q-70 73 -161 73z" />
    <glyph glyph-name="Dcaron" unicode="&#x10e;" horiz-adv-x="682" 
d="M279 818l-104 138h48l78 -109l78 109h48l-104 -138h-44zM292 710q149 0 240.5 -101.5t91.5 -253.5t-91.5 -253.5t-240.5 -101.5h-214v710h214zM292 46q125 0 204.5 87t79.5 222t-79.5 222t-204.5 87h-166v-618h166z" />
    <glyph glyph-name="dcaron" unicode="&#x10f;" horiz-adv-x="752" 
d="M90 254q0 108 76.5 185t184.5 77q76 0 137 -40.5t89 -105.5v380h49v-750h-47l-2 137q-27 -66 -88.5 -106.5t-137.5 -40.5q-109 0 -185 77t-76 187zM703 718h57l-52 -168h-41zM138 254q0 -90 64 -154t155 -64q90 0 153.5 64t63.5 154q0 89 -63.5 152.5t-153.5 63.5
q-91 0 -155 -63.5t-64 -152.5z" />
    <glyph glyph-name="Dcroat" unicode="&#x110;" horiz-adv-x="682" 
d="M292 710q149 0 240.5 -101.5t91.5 -253.5t-91.5 -253.5t-240.5 -101.5h-214v332h-107v46h107v332h214zM292 46q125 0 204.5 87t79.5 222t-79.5 222t-204.5 87h-166v-286h173v-46h-173v-286h166z" />
    <glyph glyph-name="dcroat" unicode="&#x111;" horiz-adv-x="696" 
d="M686 628v-46h-60v-582h-47l-2 137q-27 -66 -88.5 -106.5t-137.5 -40.5q-109 0 -185 77t-76 187q0 108 76.5 185t184.5 77q76 0 137 -40.5t89 -105.5v212h-219v46h219v122h49v-122h60zM357 36q90 0 153.5 64t63.5 154q0 89 -63.5 152.5t-153.5 63.5q-91 0 -155 -63.5
t-64 -152.5q0 -90 64 -154t155 -64z" />
    <glyph glyph-name="Emacron" unicode="&#x112;" horiz-adv-x="499" 
d="M360 911v-46h-203v46h203zM441 664h-315v-269h241v-46h-241v-303h315v-46h-363v710h363v-46z" />
    <glyph glyph-name="emacron" unicode="&#x113;" horiz-adv-x="666" 
d="M444 707v-46h-203v46h203zM596 249v-11h-458q3 -92 62.5 -148t150.5 -56q70 0 117 33t67 79l43 -7q-19 -59 -79.5 -104t-148.5 -45q-112 0 -186 74.5t-74 191.5q0 108 72 184t181 76q113 0 183 -78.5t70 -188.5zM343 472q-86 0 -144 -57t-61 -140h409q-5 82 -61 139.5
t-143 57.5z" />
    <glyph glyph-name="Edotaccent" unicode="&#x116;" horiz-adv-x="499" 
d="M258 849q-14 0 -24.5 10.5t-10.5 24.5q0 15 10.5 25.5t24.5 10.5q15 0 25.5 -10.5t10.5 -25.5q0 -14 -10.5 -24.5t-25.5 -10.5zM441 664h-315v-269h241v-46h-241v-303h315v-46h-363v710h363v-46z" />
    <glyph glyph-name="edotaccent" unicode="&#x117;" horiz-adv-x="666" 
d="M343 645q-14 0 -24.5 10.5t-10.5 24.5q0 15 10.5 25.5t24.5 10.5q15 0 25.5 -10.5t10.5 -25.5q0 -14 -10.5 -24.5t-25.5 -10.5zM596 249v-11h-458q3 -92 62.5 -148t150.5 -56q70 0 117 33t67 79l43 -7q-19 -59 -79.5 -104t-148.5 -45q-112 0 -186 74.5t-74 191.5
q0 108 72 184t181 76q113 0 183 -78.5t70 -188.5zM343 472q-86 0 -144 -57t-61 -140h409q-5 82 -61 139.5t-143 57.5z" />
    <glyph glyph-name="Eogonek" unicode="&#x118;" horiz-adv-x="499" 
d="M441 664h-315v-269h241v-46h-241v-303h315v-46h-103q-25 -25 -32.5 -49.5t1.5 -39t30 -14.5q35 0 68 27v-43q-30 -30 -75 -30q-52 0 -65.5 48t33.5 101h-220v710h363v-46z" />
    <glyph glyph-name="eogonek" unicode="&#x119;" horiz-adv-x="666" 
d="M596 249v-11h-458q3 -92 62.5 -148t150.5 -56q70 0 117 33t67 79l43 -7q-19 -57 -75.5 -101t-138.5 -48q-31 -37 -26.5 -65t34.5 -28q35 0 68 27v-43q-30 -30 -75 -30q-32 0 -51 20.5t-17 53.5t28 66q-103 8 -169 81t-66 184q0 108 72 184t181 76q113 0 183 -78.5
t70 -188.5zM343 472q-86 0 -144 -57t-61 -140h409q-5 82 -61 139.5t-143 57.5z" />
    <glyph glyph-name="Ecaron" unicode="&#x11a;" horiz-adv-x="499" 
d="M235 818l-104 138h48l78 -109l78 109h48l-104 -138h-44zM441 664h-315v-269h241v-46h-241v-303h315v-46h-363v710h363v-46z" />
    <glyph glyph-name="ecaron" unicode="&#x11b;" horiz-adv-x="666" 
d="M319 614l-104 138h48l78 -109l78 109h48l-104 -138h-44zM596 249v-11h-458q3 -92 62.5 -148t150.5 -56q70 0 117 33t67 79l43 -7q-19 -59 -79.5 -104t-148.5 -45q-112 0 -186 74.5t-74 191.5q0 108 72 184t181 76q113 0 183 -78.5t70 -188.5zM343 472q-86 0 -144 -57
t-61 -140h409q-5 82 -61 139.5t-143 57.5z" />
    <glyph glyph-name="Gbreve" unicode="&#x11e;" horiz-adv-x="860" 
d="M441 818q-67 0 -108.5 41t-41.5 97h41q0 -38 27.5 -69.5t81.5 -31.5t82 31.5t28 69.5h40q0 -56 -41.5 -97t-108.5 -41zM431 366h359q0 -163 -97 -269.5t-254 -106.5q-151 0 -250 106.5t-99 258.5t100 258.5t253 106.5q177 0 282 -151l-37 -29q-95 134 -245 134
q-130 0 -217.5 -93t-87.5 -226t86.5 -226t214.5 -93q124 0 207 80.5t94 202.5h-309v47z" />
    <glyph glyph-name="gbreve" unicode="&#x11f;" horiz-adv-x="589" 
d="M294 613q-67 0 -108.5 41t-41.5 97h41q0 -38 27.5 -69.5t81.5 -31.5t82 31.5t28 69.5h40q0 -56 -41.5 -97t-108.5 -41zM279 69q109 0 174.5 -40t65.5 -114q0 -72 -60 -113.5t-154 -41.5t-154.5 41.5t-60.5 113.5q0 80 82 128q-49 21 -49 59q0 22 16.5 39.5t40.5 25.5
q-42 26 -66 67.5t-24 91.5q0 80 58.5 135t145.5 55q50 0 95 -21l124 11v-44h-75q60 -55 60 -136q0 -80 -58.5 -135t-145.5 -55q-41 0 -80 14q-44 -16 -44 -42q0 -39 109 -39zM136 326q0 -62 45.5 -104.5t112.5 -42.5t112 42.5t45 104.5q0 63 -45 105.5t-112 42.5t-112.5 -43
t-45.5 -105zM305 -198q75 0 121.5 29.5t46.5 82.5q0 58 -56 85.5t-148 27.5q-23 0 -44 3q-33 -15 -61 -47t-28 -68q0 -53 47 -83t122 -30z" />
    <glyph glyph-name="Gdotaccent" unicode="&#x120;" horiz-adv-x="860" 
d="M441 849q-14 0 -24.5 10.5t-10.5 24.5q0 15 10.5 25.5t24.5 10.5q15 0 25.5 -10.5t10.5 -25.5q0 -14 -10.5 -24.5t-25.5 -10.5zM431 366h359q0 -163 -97 -269.5t-254 -106.5q-151 0 -250 106.5t-99 258.5t100 258.5t253 106.5q177 0 282 -151l-37 -29q-95 134 -245 134
q-130 0 -217.5 -93t-87.5 -226t86.5 -226t214.5 -93q124 0 207 80.5t94 202.5h-309v47z" />
    <glyph glyph-name="gdotaccent" unicode="&#x121;" horiz-adv-x="589" 
d="M293 644q-14 0 -24.5 10.5t-10.5 24.5q0 15 10.5 25.5t24.5 10.5q15 0 25.5 -10.5t10.5 -25.5q0 -14 -10.5 -24.5t-25.5 -10.5zM279 69q109 0 174.5 -40t65.5 -114q0 -72 -60 -113.5t-154 -41.5t-154.5 41.5t-60.5 113.5q0 80 82 128q-49 21 -49 59q0 22 16.5 39.5
t40.5 25.5q-42 26 -66 67.5t-24 91.5q0 80 58.5 135t145.5 55q50 0 95 -21l124 11v-44h-75q60 -55 60 -136q0 -80 -58.5 -135t-145.5 -55q-41 0 -80 14q-44 -16 -44 -42q0 -39 109 -39zM136 326q0 -62 45.5 -104.5t112.5 -42.5t112 42.5t45 104.5q0 63 -45 105.5t-112 42.5
t-112.5 -43t-45.5 -105zM305 -198q75 0 121.5 29.5t46.5 82.5q0 58 -56 85.5t-148 27.5q-23 0 -44 3q-33 -15 -61 -47t-28 -68q0 -53 47 -83t122 -30z" />
    <glyph glyph-name="Gcommaaccent" unicode="&#x122;" horiz-adv-x="860" 
d="M431 366h359q0 -163 -97 -269.5t-254 -106.5q-151 0 -250 106.5t-99 258.5t100 258.5t253 106.5q177 0 282 -151l-37 -29q-95 134 -245 134q-130 0 -217.5 -93t-87.5 -226t86.5 -226t214.5 -93q124 0 207 80.5t94 202.5h-309v47zM378 -228l36 168h57l-52 -168h-41z" />
    <glyph glyph-name="gcommaaccent" unicode="&#x123;" horiz-adv-x="589" 
d="M358 783l-36 -168h-57l52 168h41zM279 69q109 0 174.5 -40t65.5 -114q0 -72 -60 -113.5t-154 -41.5t-154.5 41.5t-60.5 113.5q0 80 82 128q-49 21 -49 59q0 22 16.5 39.5t40.5 25.5q-42 26 -66 67.5t-24 91.5q0 80 58.5 135t145.5 55q50 0 95 -21l124 11v-44h-75
q60 -55 60 -136q0 -80 -58.5 -135t-145.5 -55q-41 0 -80 14q-44 -16 -44 -42q0 -39 109 -39zM136 326q0 -62 45.5 -104.5t112.5 -42.5t112 42.5t45 104.5q0 63 -45 105.5t-112 42.5t-112.5 -43t-45.5 -105zM305 -198q75 0 121.5 29.5t46.5 82.5q0 58 -56 85.5t-148 27.5
q-23 0 -44 3q-33 -15 -61 -47t-28 -68q0 -53 47 -83t122 -30z" />
    <glyph glyph-name="Hbar" unicode="&#x126;" horiz-adv-x="651" 
d="M700 588v-46h-107v-542h-49v340h-418v-340h-48v542h-89v46h89v122h48v-122h418v122h49v-122h107zM544 386v156h-418v-156h418z" />
    <glyph glyph-name="hbar" unicode="&#x127;" horiz-adv-x="599" 
d="M347 516q87 0 138.5 -57.5t51.5 -165.5v-293h-48v278q0 97 -42.5 144.5t-112.5 47.5q-42 0 -76.5 -14.5t-55.5 -36t-36 -48.5t-21 -50.5t-7 -43.5v-277h-48v563h-61v46h61v141h48v-141h219v-46h-219v-166q74 119 209 119z" />
    <glyph glyph-name="Imacron" unicode="&#x12a;" horiz-adv-x="188" 
d="M3 911h203v-46h-203v46zM80 0v710h48v-710h-48z" />
    <glyph glyph-name="imacron" unicode="&#x12b;" horiz-adv-x="168" 
d="M-18 707h203v-46h-203v46zM108 506v-506h-48v506h48z" />
    <glyph glyph-name="Iogonek" unicode="&#x12e;" horiz-adv-x="188" 
d="M123 -103q35 0 68 27v-43q-30 -30 -75 -30q-52 0 -65.5 48t33.5 101h-4v710h48v-710h-4q-25 -25 -32.5 -49.5t1.5 -39t30 -14.5z" />
    <glyph glyph-name="iogonek" unicode="&#x12f;" horiz-adv-x="174" 
d="M83 606q-14 0 -24.5 10.5t-10.5 24.5q0 15 10.5 25.5t24.5 10.5q15 0 25.5 -10.5t10.5 -25.5q0 -14 -10.5 -24.5t-25.5 -10.5zM103 -103q35 0 68 27v-43q-30 -30 -75 -30q-52 0 -65.5 48t33.5 101h-4v506h48v-506h-4q-25 -25 -32.5 -49.5t1.5 -39t30 -14.5z" />
    <glyph glyph-name="Idotaccent" unicode="&#x130;" horiz-adv-x="188" 
d="M104 849q-14 0 -24.5 10.5t-10.5 24.5q0 15 10.5 25.5t24.5 10.5q15 0 25.5 -10.5t10.5 -25.5q0 -14 -10.5 -24.5t-25.5 -10.5zM80 0v710h48v-710h-48z" />
    <glyph glyph-name="dotlessi" unicode="&#x131;" horiz-adv-x="168" 
d="M108 506v-506h-48v506h48z" />
    <glyph glyph-name="Kcommaaccent" unicode="&#x136;" horiz-adv-x="610" 
d="M550 710l-295 -339l295 -371h-58l-268 335l-96 -110v-225h-48v710h48v-413l360 413h62zM238 -228l36 168h57l-52 -168h-41z" />
    <glyph glyph-name="kcommaaccent" unicode="&#x137;" horiz-adv-x="561" 
d="M501 506l-235 -220l235 -286h-61l-209 254l-93 -87v-167h-48v750h48v-519l295 275h68zM215 -228l36 168h57l-52 -168h-41z" />
    <glyph glyph-name="Lacute" unicode="&#x139;" horiz-adv-x="498" 
d="M236 956l-101 -138h-41l86 138h56zM138 46h290v-46h-338v710h48v-664z" />
    <glyph glyph-name="lacute" unicode="&#x13a;" horiz-adv-x="198" 
d="M181 996h56l-101 -138h-41zM138 750v-750h-48v750h48z" />
    <glyph glyph-name="Lcommaaccent" unicode="&#x13b;" horiz-adv-x="498" 
d="M138 46h290v-46h-338v710h48v-664zM167 -228l36 168h57l-52 -168h-41z" />
    <glyph glyph-name="lcommaaccent" unicode="&#x13c;" horiz-adv-x="198" 
d="M138 750v-750h-48v750h48zM87 -60h57l-52 -168h-41z" />
    <glyph glyph-name="Lcaron" unicode="&#x13d;" horiz-adv-x="498" 
d="M90 818l-104 138h48l78 -109l78 109h48l-104 -138h-44zM138 46h290v-46h-338v710h48v-664z" />
    <glyph glyph-name="lcaron" unicode="&#x13e;" horiz-adv-x="364" 
d="M138 750v-750h-48v750h48zM225 718h57l-52 -168h-41z" />
    <glyph glyph-name="Lslash" unicode="&#x141;" horiz-adv-x="498" 
d="M138 46h290v-46h-338v333l-99 -75v30l99 75v347h48v-311l100 75v-30l-100 -75v-323z" />
    <glyph glyph-name="lslash" unicode="&#x142;" horiz-adv-x="198" 
d="M237 429v-30l-99 -74v-325h-48v288l-100 -75v30l100 75v432h48v-395z" />
    <glyph glyph-name="Nacute" unicode="&#x143;" horiz-adv-x="681" 
d="M481 956l-101 -138h-41l86 138h56zM573 710h48v-710h-48l-445 628v-628h-48v710h48l445 -628v628z" />
    <glyph glyph-name="nacute" unicode="&#x144;" horiz-adv-x="599" 
d="M433 752l-101 -138h-41l86 138h56zM347 516q87 0 138.5 -57.5t51.5 -165.5v-293h-48v278q0 97 -42.5 144.5t-112.5 47.5q-42 0 -76.5 -14.5t-55.5 -36t-36 -48.5t-21 -50.5t-7 -43.5v-277h-48v506h45l3 -109q74 119 209 119z" />
    <glyph glyph-name="Ncommaaccent" unicode="&#x145;" horiz-adv-x="681" 
d="M573 710h48v-710h-48l-445 628v-628h-48v710h48l445 -628v628zM296 -228l36 168h57l-52 -168h-41z" />
    <glyph glyph-name="ncommaaccent" unicode="&#x146;" horiz-adv-x="599" 
d="M347 516q87 0 138.5 -57.5t51.5 -165.5v-293h-48v278q0 97 -42.5 144.5t-112.5 47.5q-42 0 -76.5 -14.5t-55.5 -36t-36 -48.5t-21 -50.5t-7 -43.5v-277h-48v506h45l3 -109q74 119 209 119zM248 -228l36 168h57l-52 -168h-41z" />
    <glyph glyph-name="Ncaron" unicode="&#x147;" horiz-adv-x="681" 
d="M335 818l-104 138h48l78 -109l78 109h48l-104 -138h-44zM573 710h48v-710h-48l-445 628v-628h-48v710h48l445 -628v628z" />
    <glyph glyph-name="ncaron" unicode="&#x148;" horiz-adv-x="599" 
d="M287 614l-104 138h48l78 -109l78 109h48l-104 -138h-44zM347 516q87 0 138.5 -57.5t51.5 -165.5v-293h-48v278q0 97 -42.5 144.5t-112.5 47.5q-42 0 -76.5 -14.5t-55.5 -36t-36 -48.5t-21 -50.5t-7 -43.5v-277h-48v506h45l3 -109q74 119 209 119z" />
    <glyph glyph-name="Eng" unicode="&#x14a;" horiz-adv-x="721" 
d="M573 710h48v-772q0 -63 -27.5 -96t-74.5 -33t-78 25v44q30 -23 63 -23q69 0 69 91v54l-445 628v-628h-48v710h48l445 -628v628z" />
    <glyph glyph-name="eng" unicode="&#x14b;" horiz-adv-x="591" 
d="M537 293v-322q0 -64 -28 -97t-75 -33q-46 0 -78 26v43q33 -23 63 -23q70 0 70 91v300q0 97 -42.5 144.5t-112.5 47.5q-42 0 -76.5 -14.5t-55.5 -36t-36 -48.5t-21 -50.5t-7 -43.5v-277h-48v506h45l3 -109q74 119 209 119q87 0 138.5 -57.5t51.5 -165.5z" />
    <glyph glyph-name="Omacron" unicode="&#x14c;" horiz-adv-x="871" 
d="M344 911h203v-46h-203v46zM445 -10q-150 0 -252.5 107t-102.5 258t102.5 258t252.5 107t253 -107t103 -258t-103 -258t-253 -107zM445 36q128 0 217.5 94t89.5 225t-89.5 225t-217.5 94t-217.5 -94t-89.5 -225t89.5 -225t217.5 -94z" />
    <glyph glyph-name="omacron" unicode="&#x14d;" horiz-adv-x="692" 
d="M256 707h203v-46h-203v46zM357 -10q-112 0 -189.5 77t-77.5 187q0 108 78 185t189 77t188 -77t77 -185q0 -110 -77 -187t-188 -77zM357 36q90 0 153.5 64t63.5 154q0 89 -63.5 152.5t-153.5 63.5q-91 0 -155 -63.5t-64 -152.5q0 -90 64 -154t155 -64z" />
    <glyph glyph-name="Ohungarumlaut" unicode="&#x150;" horiz-adv-x="871" 
d="M471 956h56l-101 -138h-41zM584 956h56l-101 -138h-41zM445 -10q-150 0 -252.5 107t-102.5 258t102.5 258t252.5 107t253 -107t103 -258t-103 -258t-253 -107zM445 36q128 0 217.5 94t89.5 225t-89.5 225t-217.5 94t-217.5 -94t-89.5 -225t89.5 -225t217.5 -94z" />
    <glyph glyph-name="ohungarumlaut" unicode="&#x151;" horiz-adv-x="692" 
d="M382 752h56l-101 -138h-41zM495 752h56l-101 -138h-41zM357 -10q-112 0 -189.5 77t-77.5 187q0 108 78 185t189 77t188 -77t77 -185q0 -110 -77 -187t-188 -77zM357 36q90 0 153.5 64t63.5 154q0 89 -63.5 152.5t-153.5 63.5q-91 0 -155 -63.5t-64 -152.5q0 -90 64 -154
t155 -64z" />
    <glyph glyph-name="OE" unicode="&#x152;" horiz-adv-x="1178" 
d="M1136 664h-315v-269h241v-46h-241v-303h315v-46h-363v213q-41 -100 -129 -161.5t-199 -61.5q-150 0 -252.5 107t-102.5 258t102.5 258t252.5 107q111 0 199 -61.5t129 -161.5v213h363v-46zM445 36q128 0 217.5 94t89.5 225t-89.5 225t-217.5 94t-217.5 -94t-89.5 -225
t89.5 -225t217.5 -94z" />
    <glyph glyph-name="oe" unicode="&#x153;" horiz-adv-x="1117" 
d="M1047 249v-14h-420q5 -98 62 -150t148 -52q97 0 183 66v-43q-31 -27 -81.5 -46.5t-107.5 -19.5q-82 0 -144 40t-90 112q-32 -69 -96.5 -110.5t-143.5 -41.5q-112 0 -189.5 77t-77.5 187q0 108 78 185t189 77q79 0 143.5 -41.5t96.5 -109.5q27 69 86 110t136 41
q107 0 167.5 -77t60.5 -190zM820 472q-81 0 -134.5 -54t-58.5 -144h373q-7 87 -53.5 142.5t-126.5 55.5zM357 36q90 0 153.5 64t63.5 154q0 89 -63.5 152.5t-153.5 63.5q-91 0 -155 -63.5t-64 -152.5q0 -90 64 -154t155 -64z" />
    <glyph glyph-name="Racute" unicode="&#x154;" horiz-adv-x="594" 
d="M406 956l-101 -138h-41l86 138h56zM480 0l-167 253h-187v-253h-48v710h239q89 0 153 -63t64 -166q0 -88 -48 -147.5t-122 -75.5l172 -258h-56zM126 664v-365h191q69 0 119 50t50 132q0 83 -50 133t-119 50h-191z" />
    <glyph glyph-name="racute" unicode="&#x155;" horiz-adv-x="358" 
d="M340 752l-101 -138h-41l86 138h56zM138 429q49 87 124 87q38 0 66 -23l-12 -41q-27 18 -56 18q-42 0 -71 -31.5t-40 -72.5t-11 -86v-280h-48v506h45z" />
    <glyph glyph-name="Rcommaaccent" unicode="&#x156;" horiz-adv-x="594" 
d="M364 258l172 -258h-56l-167 253h-187v-253h-48v710h239q89 0 153 -63t64 -166q0 -88 -48 -147.5t-122 -75.5zM126 664v-365h191q69 0 119 50t50 132q0 83 -50 133t-119 50h-191zM225 -228l36 168h57l-52 -168h-41z" />
    <glyph glyph-name="rcommaaccent" unicode="&#x157;" horiz-adv-x="358" 
d="M262 516q38 0 66 -23l-12 -41q-27 18 -56 18q-42 0 -71 -31.5t-40 -72.5t-11 -86v-280h-48v506h45l3 -77q49 87 124 87zM49 -228l36 168h57l-52 -168h-41z" />
    <glyph glyph-name="Rcaron" unicode="&#x158;" horiz-adv-x="594" 
d="M261 818l-104 138h48l78 -109l78 109h48l-104 -138h-44zM480 0l-167 253h-187v-253h-48v710h239q89 0 153 -63t64 -166q0 -88 -48 -147.5t-122 -75.5l172 -258h-56zM126 664v-365h191q69 0 119 50t50 132q0 83 -50 133t-119 50h-191z" />
    <glyph glyph-name="rcaron" unicode="&#x159;" horiz-adv-x="358" 
d="M194 614l-104 138h48l78 -109l78 109h48l-104 -138h-44zM138 429q49 87 124 87q38 0 66 -23l-12 -41q-27 18 -56 18q-42 0 -71 -31.5t-40 -72.5t-11 -86v-280h-48v506h45z" />
    <glyph glyph-name="Sacute" unicode="&#x15a;" horiz-adv-x="601" 
d="M391 956h56l-101 -138h-41zM106 180h48q6 -69 55 -106.5t113 -37.5q74 0 117.5 35.5t43.5 92.5q0 62 -44 101.5t-127 78.5l-62 31.5t-50 31t-43.5 38.5t-24.5 46t-11 62q0 72 56.5 119.5t137.5 47.5q77 0 129.5 -50t58.5 -122h-48q-6 54 -44.5 90t-95.5 36
q-61 0 -103.5 -34.5t-42.5 -87.5q0 -74 70 -119q22 -14 86 -44q101 -47 153.5 -97.5t52.5 -128.5t-58 -125.5t-151 -47.5q-85 0 -147.5 52t-68.5 138z" />
    <glyph glyph-name="sacute" unicode="&#x15b;" horiz-adv-x="533" 
d="M335 752h56l-101 -138h-41zM90 127h48q15 -43 53 -68.5t96 -25.5t92.5 24t34.5 62q0 12 -2 22.5t-7.5 19.5t-10.5 16t-16.5 14.5t-18.5 12.5t-24.5 12.5t-26.5 12t-31.5 13.5l-34.5 14q-30 12 -49 21.5t-41.5 25.5t-33.5 38.5t-11 50.5q0 56 47 90t108 34q68 0 113 -36
t51 -94h-48q-6 41 -38 64.5t-77 23.5q-42 0 -74.5 -22.5t-32.5 -59.5q0 -13 3.5 -23.5t12.5 -20t16.5 -16t25 -15t29 -13.5l36 -15.5l38.5 -16.5q34 -14 56 -26t45 -30t34 -42t11 -55q0 -57 -48.5 -93t-128.5 -36q-78 0 -130.5 36.5t-65.5 100.5z" />
    <glyph glyph-name="Scedilla" unicode="&#x15e;" horiz-adv-x="601" 
d="M531 163q0 -74 -52.5 -120.5t-137.5 -51.5l-19 -40q35 -2 57.5 -17.5t22.5 -42.5q0 -74 -148 -74l11 30q104 0 104 43q0 32 -61 34l-28 -1l24 68q-80 5 -136 56t-62 133h48q6 -69 55 -106.5t113 -37.5q74 0 117.5 35.5t43.5 92.5q0 62 -44 101.5t-127 78.5l-62 31.5
t-50 31t-43.5 38.5t-24.5 46t-11 62q0 72 56.5 119.5t137.5 47.5q77 0 129.5 -50t58.5 -122h-48q-6 54 -44.5 90t-95.5 36q-61 0 -103.5 -34.5t-42.5 -87.5q0 -74 70 -119q22 -14 86 -44q101 -47 153.5 -97.5t52.5 -128.5z" />
    <glyph glyph-name="scedilla" unicode="&#x15f;" horiz-adv-x="533" 
d="M463 119q0 -55 -44.5 -90.5t-118.5 -38.5l-19 -39q35 -2 57.5 -17.5t22.5 -42.5q0 -74 -148 -74l11 30q104 0 104 43q0 32 -61 34l-28 -1l24 68q-69 5 -115 41t-58 95h48q15 -43 53 -68.5t96 -25.5t92.5 24t34.5 62q0 12 -2 22.5t-7.5 19.5t-10.5 16t-16.5 14.5
t-18.5 12.5t-24.5 12.5t-26.5 12t-31.5 13.5l-34.5 14q-30 12 -49 21.5t-41.5 25.5t-33.5 38.5t-11 50.5q0 56 47 90t108 34q68 0 113 -36t51 -94h-48q-6 41 -38 64.5t-77 23.5q-42 0 -74.5 -22.5t-32.5 -59.5q0 -13 3.5 -23.5t12.5 -20t16.5 -16t25 -15t29 -13.5l36 -15.5
l38.5 -16.5q34 -14 56 -26t45 -30t34 -42t11 -55z" />
    <glyph glyph-name="Scaron" unicode="&#x160;" horiz-adv-x="601" 
d="M301 818l-104 138h48l78 -109l78 109h48l-104 -138h-44zM325 389q101 -47 153.5 -97.5t52.5 -128.5t-58 -125.5t-151 -47.5q-85 0 -147.5 52t-68.5 138h48q6 -69 55 -106.5t113 -37.5q74 0 117.5 35.5t43.5 92.5q0 62 -44 101.5t-127 78.5l-62 31.5t-50 31t-43.5 38.5
t-24.5 46t-11 62q0 72 56.5 119.5t137.5 47.5q77 0 129.5 -50t58.5 -122h-48q-6 54 -44.5 90t-95.5 36q-61 0 -103.5 -34.5t-42.5 -87.5q0 -74 70 -119q22 -14 86 -44z" />
    <glyph glyph-name="scaron" unicode="&#x161;" horiz-adv-x="533" 
d="M245 614l-104 138h48l78 -109l78 109h48l-104 -138h-44zM317 272q34 -14 56 -26t45 -30t34 -42t11 -55q0 -57 -48.5 -93t-128.5 -36q-78 0 -130.5 36.5t-65.5 100.5h48q15 -43 53 -68.5t96 -25.5t92.5 24t34.5 62q0 12 -2 22.5t-7.5 19.5t-10.5 16t-16.5 14.5t-18.5 12.5
t-24.5 12.5t-26.5 12t-31.5 13.5l-34.5 14q-30 12 -49 21.5t-41.5 25.5t-33.5 38.5t-11 50.5q0 56 47 90t108 34q68 0 113 -36t51 -94h-48q-6 41 -38 64.5t-77 23.5q-42 0 -74.5 -22.5t-32.5 -59.5q0 -13 3.5 -23.5t12.5 -20t16.5 -16t25 -15t29 -13.5l36 -15.5z" />
    <glyph glyph-name="uni0162" unicode="&#x162;" horiz-adv-x="529" 
d="M298 0h-4l-23 -49q35 -2 57.5 -17.5t22.5 -42.5q0 -74 -148 -74l11 30q104 0 104 43q0 32 -61 34l-28 -1l27 77h-6v664h-180v46h409v-46h-181v-664z" />
    <glyph glyph-name="uni0163" unicode="&#x163;" horiz-adv-x="319" 
d="M173 0h-4l-23 -49q35 -2 57.5 -17.5t22.5 -42.5q0 -74 -148 -74l11 30q104 0 104 43q0 32 -61 34l-28 -1l27 77h-6v460h-65v46h65v150h48v-150h96v-46h-96v-460z" />
    <glyph glyph-name="Tcaron" unicode="&#x164;" horiz-adv-x="529" 
d="M250 818l-104 138h48l78 -109l78 109h48l-104 -138h-44zM479 710v-46h-181v-664h-48v664h-180v46h409z" />
    <glyph glyph-name="tcaron" unicode="&#x165;" horiz-adv-x="319" 
d="M279 726h57l-52 -168h-41zM173 656v-150h96v-46h-96v-460h-48v460h-65v46h65v150h48z" />
    <glyph glyph-name="Tbar" unicode="&#x166;" horiz-adv-x="529" 
d="M479 664h-181v-286h142v-46h-142v-332h-48v332h-138v46h138v286h-180v46h409v-46z" />
    <glyph glyph-name="tbar" unicode="&#x167;" horiz-adv-x="319" 
d="M269 460h-96v-142h81v-46h-81v-272h-48v272h-53v46h53v142h-65v46h65v150h48v-150h96v-46z" />
    <glyph glyph-name="Utilde" unicode="&#x168;" horiz-adv-x="667" 
d="M156 855q2 37 27 64t71 27q39 0 90 -38.5t82 -38.5t47.5 16t16.5 39l42 -5q-2 -37 -27 -64t-71 -27q-39 0 -90 38t-82 38q-30 0 -46.5 -16.5t-16.5 -38.5zM609 279q0 -143 -71.5 -216t-193.5 -73q-123 0 -194.5 73t-71.5 216v431h48v-431q0 -124 59 -183.5t159 -59.5
q99 0 158 59.5t59 183.5v431h48v-431z" />
    <glyph glyph-name="utilde" unicode="&#x169;" horiz-adv-x="599" 
d="M232 700q-30 0 -46.5 -16.5t-16.5 -38.5l-43 6q2 37 27 64t71 27q39 0 90 -38.5t82 -38.5t47.5 16t16.5 39l42 -5q-2 -37 -27 -64t-71 -27q-39 0 -90 38t-82 38zM481 506h48v-506h-46l-2 109q-74 -119 -209 -119q-87 0 -138.5 57.5t-51.5 165.5v293h48v-278
q0 -97 42.5 -144.5t112.5 -47.5q43 0 78.5 15t56.5 38t35.5 51t20 51.5t5.5 43.5v271z" />
    <glyph glyph-name="Umacron" unicode="&#x16a;" horiz-adv-x="667" 
d="M242 911h203v-46h-203v46zM609 279q0 -143 -71.5 -216t-193.5 -73q-123 0 -194.5 73t-71.5 216v431h48v-431q0 -124 59 -183.5t159 -59.5q99 0 158 59.5t59 183.5v431h48v-431z" />
    <glyph glyph-name="umacron" unicode="&#x16b;" horiz-adv-x="599" 
d="M416 707v-46h-203v46h203zM481 506h48v-506h-46l-2 109q-74 -119 -209 -119q-87 0 -138.5 57.5t-51.5 165.5v293h48v-278q0 -97 42.5 -144.5t112.5 -47.5q43 0 78.5 15t56.5 38t35.5 51t20 51.5t5.5 43.5v271z" />
    <glyph glyph-name="Uring" unicode="&#x16e;" horiz-adv-x="667" 
d="M344 826q-29 0 -49.5 20.5t-20.5 49.5t20.5 49.5t49.5 20.5t49 -20.5t20 -49.5t-20 -49.5t-49 -20.5zM344 856q16 0 28 12t12 28t-12 28t-28 12q-17 0 -29 -11.5t-12 -28.5t12 -28.5t29 -11.5zM609 279q0 -143 -71.5 -216t-193.5 -73q-123 0 -194.5 73t-71.5 216v431h48
v-431q0 -124 59 -183.5t159 -59.5q99 0 158 59.5t59 183.5v431h48v-431z" />
    <glyph glyph-name="uring" unicode="&#x16f;" horiz-adv-x="599" 
d="M315 622q-29 0 -49.5 20.5t-20.5 49.5t20.5 49.5t49.5 20.5t49 -20.5t20 -49.5t-20 -49.5t-49 -20.5zM315 732q-17 0 -29 -11.5t-12 -28.5t12 -28.5t29 -11.5t28.5 12t11.5 28t-11.5 28t-28.5 12zM481 506h48v-506h-46l-2 109q-74 -119 -209 -119q-87 0 -138.5 57.5
t-51.5 165.5v293h48v-278q0 -97 42.5 -144.5t112.5 -47.5q43 0 78.5 15t56.5 38t35.5 51t20 51.5t5.5 43.5v271z" />
    <glyph glyph-name="Uhungarumlaut" unicode="&#x170;" horiz-adv-x="667" 
d="M369 956h56l-101 -138h-41zM482 956h56l-101 -138h-41zM609 279q0 -143 -71.5 -216t-193.5 -73q-123 0 -194.5 73t-71.5 216v431h48v-431q0 -124 59 -183.5t159 -59.5q99 0 158 59.5t59 183.5v431h48v-431z" />
    <glyph glyph-name="uhungarumlaut" unicode="&#x171;" horiz-adv-x="599" 
d="M396 752l-101 -138h-41l86 138h56zM408 614h-41l86 138h56zM481 506h48v-506h-46l-2 109q-74 -119 -209 -119q-87 0 -138.5 57.5t-51.5 165.5v293h48v-278q0 -97 42.5 -144.5t112.5 -47.5q43 0 78.5 15t56.5 38t35.5 51t20 51.5t5.5 43.5v271z" />
    <glyph glyph-name="Uogonek" unicode="&#x172;" horiz-adv-x="667" 
d="M561 710h48v-431q0 -143 -70.5 -215.5t-191.5 -73.5q-24 -34 -18 -58.5t34 -24.5q35 0 68 27v-43q-30 -30 -75 -30q-47 0 -63 40.5t16 90.5q-107 9 -169 82t-62 205v431h48v-431q0 -124 59 -183.5t159 -59.5q99 0 158 59.5t59 183.5v431z" />
    <glyph glyph-name="uogonek" unicode="&#x173;" horiz-adv-x="599" 
d="M526 -103q35 0 68 27v-43q-30 -30 -75 -30q-52 0 -65.5 48t33.5 101h-4l-2 109q-74 -119 -209 -119q-87 0 -138.5 57.5t-51.5 165.5v293h48v-278q0 -97 42.5 -144.5t112.5 -47.5q43 0 78.5 15t56.5 38t35.5 51t20 51.5t5.5 43.5v271h48v-506h-2q-25 -25 -32.5 -49.5
t1.5 -39t30 -14.5z" />
    <glyph glyph-name="Wcircumflex" unicode="&#x174;" horiz-adv-x="1110" 
d="M566 927l-78 -109h-48l104 138h44l104 -138h-48zM1011 710h49l-232 -710h-55l-208 634l-207 -634h-56l-232 710h50l210 -644l210 644h50l210 -644z" />
    <glyph glyph-name="wcircumflex" unicode="&#x175;" horiz-adv-x="922" 
d="M472 723l-78 -109h-48l104 138h44l104 -138h-48zM811 506h51l-183 -506h-51l-157 435l-158 -435h-50l-183 506h51l157 -445l157 445h51l157 -445z" />
    <glyph glyph-name="Ycircumflex" unicode="&#x176;" horiz-adv-x="667" 
d="M344 927l-78 -109h-48l104 138h44l104 -138h-48zM562 710h55l-250 -404v-306h-48v306l-249 404h55l218 -353z" />
    <glyph glyph-name="ycircumflex" unicode="&#x177;" horiz-adv-x="638" 
d="M333 723l-78 -109h-48l104 138h44l104 -138h-48zM526 506h52l-322 -736h-52l101 231l-225 505h52l199 -445z" />
    <glyph glyph-name="Ydieresis" unicode="&#x178;" horiz-adv-x="667" 
d="M270 849q-14 0 -24.5 10.5t-10.5 24.5q0 15 10.5 25.5t24.5 10.5q15 0 25.5 -10.5t10.5 -25.5q0 -14 -10.5 -24.5t-25.5 -10.5zM415 849q-14 0 -24.5 10.5t-10.5 24.5q0 15 10.5 25.5t24.5 10.5q15 0 25.5 -10.5t10.5 -25.5q0 -14 -10.5 -24.5t-25.5 -10.5zM562 710h55
l-250 -404v-306h-48v306l-249 404h55l218 -353z" />
    <glyph glyph-name="Zacute" unicode="&#x179;" horiz-adv-x="672" 
d="M478 956l-101 -138h-41l86 138h56zM612 710v-46l-461 -618h461v-46h-522v46l461 618h-461v46h522z" />
    <glyph glyph-name="zacute" unicode="&#x17a;" horiz-adv-x="537" 
d="M401 752l-101 -138h-41l86 138h56zM477 506v-46l-324 -414h324v-46h-387v46l323 414h-323v46h387z" />
    <glyph glyph-name="Zdotaccent" unicode="&#x17b;" horiz-adv-x="672" 
d="M356 849q-14 0 -24.5 10.5t-10.5 24.5q0 15 10.5 25.5t24.5 10.5q15 0 25.5 -10.5t10.5 -25.5q0 -14 -10.5 -24.5t-25.5 -10.5zM612 710v-46l-461 -618h461v-46h-522v46l461 618h-461v46h522z" />
    <glyph glyph-name="zdotaccent" unicode="&#x17c;" horiz-adv-x="537" 
d="M279 645q-14 0 -24.5 10.5t-10.5 24.5q0 15 10.5 25.5t24.5 10.5q15 0 25.5 -10.5t10.5 -25.5q0 -14 -10.5 -24.5t-25.5 -10.5zM477 506v-46l-324 -414h324v-46h-387v46l323 414h-323v46h387z" />
    <glyph glyph-name="Zcaron" unicode="&#x17d;" horiz-adv-x="672" 
d="M333 818l-104 138h48l78 -109l78 109h48l-104 -138h-44zM612 710v-46l-461 -618h461v-46h-522v46l461 618h-461v46h522z" />
    <glyph glyph-name="zcaron" unicode="&#x17e;" horiz-adv-x="537" 
d="M255 614l-104 138h48l78 -109l78 109h48l-104 -138h-44zM477 506v-46l-324 -414h324v-46h-387v46l323 414h-323v46h387z" />
    <glyph glyph-name="Scommaaccent" unicode="&#x218;" horiz-adv-x="601" 
d="M106 180h48q6 -69 55 -106.5t113 -37.5q74 0 117.5 35.5t43.5 92.5q0 62 -44 101.5t-127 78.5l-62 31.5t-50 31t-43.5 38.5t-24.5 46t-11 62q0 72 56.5 119.5t137.5 47.5q77 0 129.5 -50t58.5 -122h-48q-6 54 -44.5 90t-95.5 36q-61 0 -103.5 -34.5t-42.5 -87.5
q0 -74 70 -119q22 -14 86 -44q101 -47 153.5 -97.5t52.5 -128.5t-58 -125.5t-151 -47.5q-85 0 -147.5 52t-68.5 138zM298 -60h57l-52 -168h-41z" />
    <glyph glyph-name="scommaaccent" unicode="&#x219;" horiz-adv-x="533" 
d="M90 127h48q15 -43 53 -68.5t96 -25.5t92.5 24t34.5 62q0 12 -2 22.5t-7.5 19.5t-10.5 16t-16.5 14.5t-18.5 12.5t-24.5 12.5t-26.5 12t-31.5 13.5l-34.5 14q-30 12 -49 21.5t-41.5 25.5t-33.5 38.5t-11 50.5q0 56 47 90t108 34q68 0 113 -36t51 -94h-48q-6 41 -38 64.5
t-77 23.5q-42 0 -74.5 -22.5t-32.5 -59.5q0 -13 3.5 -23.5t12.5 -20t16.5 -16t25 -15t29 -13.5l36 -15.5l38.5 -16.5q34 -14 56 -26t45 -30t34 -42t11 -55q0 -57 -48.5 -93t-128.5 -36q-78 0 -130.5 36.5t-65.5 100.5zM257 -60h57l-52 -168h-41z" />
    <glyph glyph-name="uni021A" unicode="&#x21a;" horiz-adv-x="529" 
d="M479 710v-46h-181v-664h-48v664h-180v46h409zM211 -228l36 168h57l-52 -168h-41z" />
    <glyph glyph-name="uni021B" unicode="&#x21b;" horiz-adv-x="319" 
d="M173 506h96v-46h-96v-460h-48v460h-65v46h65v150h48v-150zM86 -228l36 168h57l-52 -168h-41z" />
    <glyph glyph-name="circumflex" unicode="&#x2c6;" horiz-adv-x="453" 
d="M352 578h-48l-78 109l-78 -109h-48l104 138h44z" />
    <glyph glyph-name="caron" unicode="&#x2c7;" horiz-adv-x="453" 
d="M305 716h48l-105 -138h-43l-105 138h48l79 -109z" />
    <glyph glyph-name="breve" unicode="&#x2d8;" horiz-adv-x="500" 
d="M400 716q0 -56 -41.5 -97t-108.5 -41t-108.5 41t-41.5 97h41q0 -38 27.5 -69.5t81.5 -31.5t82 31.5t28 69.5h40z" />
    <glyph glyph-name="dotaccent" unicode="&#x2d9;" horiz-adv-x="271" 
d="M135 609q-14 0 -24.5 10t-10.5 25t10.5 25t24.5 10q15 0 25.5 -10t10.5 -25t-10.5 -25t-25.5 -10z" />
    <glyph glyph-name="ring" unicode="&#x2da;" horiz-adv-x="339" 
d="M170 586q-29 0 -49.5 20.5t-20.5 49.5t20.5 49.5t49.5 20.5t49 -20.5t20 -49.5t-20 -49.5t-49 -20.5zM170 616q16 0 28 12t12 28t-12 28t-28 12q-17 0 -29 -11.5t-12 -28.5t12 -28.5t29 -11.5z" />
    <glyph glyph-name="ogonek" unicode="&#x2db;" horiz-adv-x="345" 
d="M245 -76v-43q-30 -30 -75 -30q-52 0 -65.5 48t32.5 101h41q-25 -25 -33 -49.5t1 -39t30 -14.5q36 0 69 27z" />
    <glyph glyph-name="tilde" unicode="&#x2dc;" horiz-adv-x="576" 
d="M100 614q2 37 27 64t71 27q39 0 90 -38t82 -38t47.5 16t16.5 39l42 -6q-2 -37 -27 -64t-71 -27q-39 0 -90 38.5t-82 38.5q-30 0 -46.5 -16.5t-16.5 -38.5z" />
    <glyph glyph-name="hungarumlaut" unicode="&#x2dd;" horiz-adv-x="456" 
d="M299 716h57l-102 -138h-41zM186 716h56l-101 -138h-41z" />
    <glyph glyph-name="gravecomb" unicode="&#x300;" 
d="M-186 716l86 -138h-40l-102 138h56z" />
    <glyph glyph-name="acutecomb" unicode="&#x301;" 
d="M-156 716h56l-101 -138h-41z" />
    <glyph glyph-name="uni0302" unicode="&#x302;" 
d="M-101 578h-48l-78 109l-78 -109h-48l104 138h44z" />
    <glyph glyph-name="tildecomb" unicode="&#x303;" 
d="M-476 614q2 37 27 64t71 27q39 0 90 -38t82 -38t47.5 16t16.5 39l42 -6q-2 -37 -27 -64t-71 -27q-39 0 -90 38.5t-82 38.5q-30 0 -46.5 -16.5t-16.5 -38.5z" />
    <glyph glyph-name="uni0304" unicode="&#x304;" 
d="M-305 671h203v-46h-203v46z" />
    <glyph glyph-name="uni0306" unicode="&#x306;" 
d="M-100 716q0 -56 -41.5 -97t-108.5 -41t-108.5 41t-41.5 97h41q0 -38 27.5 -69.5t81.5 -31.5t82 31.5t28 69.5h40z" />
    <glyph glyph-name="uni0307" unicode="&#x307;" 
d="M-136 609q-14 0 -24.5 10t-10.5 25t10.5 25t24.5 10q15 0 25.5 -10t10.5 -25t-10.5 -25t-25.5 -10z" />
    <glyph glyph-name="uni0308" unicode="&#x308;" 
d="M-279 609q-14 0 -24.5 10t-10.5 25t10.5 25t24.5 10q15 0 25.5 -10t10.5 -25t-10.5 -25t-25.5 -10zM-134 609q-14 0 -24.5 10t-10.5 25t10.5 25t24.5 10q15 0 25.5 -10t10.5 -25t-10.5 -25t-25.5 -10z" />
    <glyph glyph-name="uni030A" unicode="&#x30a;" 
d="M-169 586q-29 0 -49.5 20.5t-20.5 49.5t20.5 49.5t49.5 20.5t49 -20.5t20 -49.5t-20 -49.5t-49 -20.5zM-169 616q17 0 28.5 12t11.5 28t-11.5 28t-28.5 12t-29 -11.5t-12 -28.5t12 -28.5t29 -11.5z" />
    <glyph glyph-name="uni030B" unicode="&#x30b;" 
d="M-137 716h57l-102 -138h-41zM-250 716h56l-101 -138h-41z" />
    <glyph glyph-name="uni030C" unicode="&#x30c;" 
d="M-149 716h48l-104 -138h-44l-104 138h48l78 -109z" />
    <glyph glyph-name="uni0312" unicode="&#x312;" 
d="M-136 580h-57l51 168h42z" />
    <glyph glyph-name="uni0326" unicode="&#x326;" 
d="M-157 -60h57l-52 -168h-41z" />
    <glyph glyph-name="uni0327" unicode="&#x327;" 
d="M-165 -49q35 -2 57.5 -17.5t22.5 -42.5q0 -74 -148 -74l11 30q104 0 104 43q0 32 -61 34l-28 -1l27 77h38z" />
    <glyph glyph-name="uni0328" unicode="&#x328;" 
d="M-112 -76v-43q-30 -30 -75 -30q-52 0 -65.5 48t33.5 101h40q-25 -25 -32.5 -49.5t1.5 -39t30 -14.5q35 0 68 27z" />
    <glyph glyph-name="uni0335" unicode="&#x335;" 
d="M-428 258h328v-46h-328v46z" />
    <glyph glyph-name="uni0336" unicode="&#x336;" 
d="M-724 256h710v-46h-710v46z" />
    <glyph glyph-name="uni0337" unicode="&#x337;" 
d="M-347 127v30l247 186v-30z" />
    <glyph glyph-name="uni0338" unicode="&#x338;" 
d="M-76 750l-597 -790h-29l596 790h30z" />
    <glyph glyph-name="Wgrave" unicode="&#x1e80;" horiz-adv-x="1110" 
d="M585 818h-41l-101 138h56zM1011 710h49l-232 -710h-55l-208 634l-207 -634h-56l-232 710h50l210 -644l210 644h50l210 -644z" />
    <glyph glyph-name="wgrave" unicode="&#x1e81;" horiz-adv-x="922" 
d="M492 614h-41l-101 138h56zM811 506h51l-183 -506h-51l-157 435l-158 -435h-50l-183 506h51l157 -445l157 445h51l157 -445z" />
    <glyph glyph-name="Wacute" unicode="&#x1e82;" horiz-adv-x="1110" 
d="M687 956l-101 -138h-41l86 138h56zM1011 710h49l-232 -710h-55l-208 634l-207 -634h-56l-232 710h50l210 -644l210 644h50l210 -644z" />
    <glyph glyph-name="wacute" unicode="&#x1e83;" horiz-adv-x="922" 
d="M594 752l-101 -138h-41l86 138h56zM811 506h51l-183 -506h-51l-157 435l-158 -435h-50l-183 506h51l157 -445l157 445h51l157 -445z" />
    <glyph glyph-name="Wdieresis" unicode="&#x1e84;" horiz-adv-x="1110" 
d="M492 849q-14 0 -24.5 10.5t-10.5 24.5q0 15 10.5 25.5t24.5 10.5q15 0 25.5 -10.5t10.5 -25.5q0 -14 -10.5 -24.5t-25.5 -10.5zM637 849q-14 0 -24.5 10.5t-10.5 24.5q0 15 10.5 25.5t24.5 10.5q15 0 25.5 -10.5t10.5 -25.5q0 -14 -10.5 -24.5t-25.5 -10.5zM1011 710h49
l-232 -710h-55l-208 634l-207 -634h-56l-232 710h50l210 -644l210 644h50l210 -644z" />
    <glyph glyph-name="wdieresis" unicode="&#x1e85;" horiz-adv-x="922" 
d="M399 645q-14 0 -24.5 10.5t-10.5 24.5q0 15 10.5 25.5t24.5 10.5q15 0 25.5 -10.5t10.5 -25.5q0 -14 -10.5 -24.5t-25.5 -10.5zM544 645q-14 0 -24.5 10.5t-10.5 24.5q0 15 10.5 25.5t24.5 10.5q15 0 25.5 -10.5t10.5 -25.5q0 -14 -10.5 -24.5t-25.5 -10.5zM811 506h51
l-183 -506h-51l-157 435l-158 -435h-50l-183 506h51l157 -445l157 445h51l157 -445z" />
    <glyph glyph-name="uni1EBC" unicode="&#x1ebc;" horiz-adv-x="499" 
d="M177 904q-30 0 -46.5 -16.5t-16.5 -38.5l-43 6q2 37 27 64t71 27q39 0 90 -38.5t82 -38.5t47.5 16t16.5 39l42 -5q-2 -37 -27 -64t-71 -27q-39 0 -90 38t-82 38zM78 710h363v-46h-315v-269h241v-46h-241v-303h315v-46h-363v710z" />
    <glyph glyph-name="uni1EBD" unicode="&#x1ebd;" horiz-adv-x="666" 
d="M261 700q-30 0 -46.5 -16.5t-16.5 -38.5l-43 6q2 37 27 64t71 27q39 0 90 -38.5t82 -38.5t47.5 16t16.5 39l42 -5q-2 -37 -27 -64t-71 -27q-39 0 -90 38t-82 38zM596 249v-11h-458q3 -92 62.5 -148t150.5 -56q70 0 117 33t67 79l43 -7q-19 -59 -79.5 -104t-148.5 -45
q-112 0 -186 74.5t-74 191.5q0 108 72 184t181 76q113 0 183 -78.5t70 -188.5zM343 472q-86 0 -144 -57t-61 -140h409q-5 82 -61 139.5t-143 57.5z" />
    <glyph glyph-name="Ygrave" unicode="&#x1ef2;" horiz-adv-x="667" 
d="M363 818h-41l-101 138h56zM562 710h55l-250 -404v-306h-48v306l-249 404h55l218 -353z" />
    <glyph glyph-name="ygrave" unicode="&#x1ef3;" horiz-adv-x="638" 
d="M266 752l86 -138h-41l-101 138h56zM80 506h52l199 -445l195 445h52l-322 -736h-52l101 231z" />
    <glyph glyph-name="uni1EF8" unicode="&#x1ef8;" horiz-adv-x="667" 
d="M261 904q-30 0 -46.5 -16.5t-16.5 -38.5l-43 6q2 37 27 64t71 27q39 0 90 -38.5t82 -38.5t47.5 16t16.5 39l42 -5q-2 -37 -27 -64t-71 -27q-39 0 -90 38t-82 38zM562 710h55l-250 -404v-306h-48v306l-249 404h55l218 -353z" />
    <glyph glyph-name="uni1EF9" unicode="&#x1ef9;" horiz-adv-x="638" 
d="M145 651q2 37 27 64t71 27q39 0 90 -38.5t82 -38.5t47.5 16t16.5 39l42 -5q-2 -37 -27 -64t-71 -27q-39 0 -90 38t-82 38q-30 0 -46.5 -16.5t-16.5 -38.5zM80 506h52l199 -445l195 445h52l-322 -736h-52l101 231z" />
    <glyph glyph-name="endash" unicode="&#x2013;" horiz-adv-x="788" 
d="M30 296h738v-46h-738v46z" />
    <glyph glyph-name="emdash" unicode="&#x2014;" horiz-adv-x="1034" 
d="M30 296h984v-46h-984v46z" />
    <glyph glyph-name="quoteleft" unicode="&#x2018;" horiz-adv-x="192" 
d="M107 550h-57l51 168h41z" />
    <glyph glyph-name="quoteright" unicode="&#x2019;" horiz-adv-x="192" 
d="M85 718h57l-51 -168h-42z" />
    <glyph glyph-name="quotesinglbase" unicode="&#x201a;" horiz-adv-x="226" 
d="M66 50h57l-52 -168h-41z" />
    <glyph glyph-name="quotedblleft" unicode="&#x201c;" horiz-adv-x="294" 
d="M109 549h-57l52 168h41zM210 549h-57l52 168h41z" />
    <glyph glyph-name="quotedblright" unicode="&#x201d;" horiz-adv-x="294" 
d="M85 718h57l-52 -168h-41zM186 718h57l-52 -168h-41z" />
    <glyph glyph-name="quotedblbase" unicode="&#x201e;" horiz-adv-x="226" 
d="M66 50h57l-52 -168h-41z" />
    <glyph glyph-name="dagger" unicode="&#x2020;" horiz-adv-x="528" 
d="M428 521v-46h-144v-555h-40v555h-144v46h144v269h40v-269h144z" />
    <glyph glyph-name="daggerdbl" unicode="&#x2021;" horiz-adv-x="528" 
d="M428 475h-144v-234h144v-46h-144v-275h-40v275h-144v46h144v234h-144v46h144v269h40v-269h144v-46z" />
    <glyph glyph-name="bullet" unicode="&#x2022;" horiz-adv-x="186" 
d="M83 243q-22 0 -37.5 15t-15.5 37t15.5 37.5t37.5 15.5q23 0 38.5 -15.5t15.5 -37.5t-15.5 -37t-38.5 -15z" />
    <glyph glyph-name="ellipsis" unicode="&#x2026;" horiz-adv-x="392" 
d="M186 -10q-15 0 -25 10.5t-10 24.5q0 15 10 25.5t25 10.5t25 -10.5t10 -25.5q0 -14 -10 -24.5t-25 -10.5zM307 -10q-15 0 -25.5 10.5t-10.5 24.5q0 15 10.5 25.5t25.5 10.5q14 0 24.5 -10.5t10.5 -25.5q0 -14 -10.5 -24.5t-24.5 -10.5zM65 -10q-14 0 -24.5 10.5
t-10.5 24.5q0 15 10.5 25.5t24.5 10.5q15 0 25.5 -10.5t10.5 -25.5q0 -14 -10.5 -24.5t-25.5 -10.5z" />
    <glyph glyph-name="perthousand" unicode="&#x2030;" horiz-adv-x="1364" 
d="M265 390q-69 0 -117 48t-48 117t48 117t117 48t117 -48t48 -117t-48 -117t-117 -48zM794 710l-536 -710h-49l536 710h49zM265 429q53 0 89.5 36.5t36.5 89.5t-36.5 89.5t-89.5 36.5t-89.5 -36.5t-36.5 -89.5t36.5 -89.5t89.5 -36.5zM736 -10q-69 0 -117 48t-48 117
t48 117t117 48t117 -48t48 -117t-48 -117t-117 -48zM1119 -10q-69 0 -117 48t-48 117t48 117t117 48t117 -48t48 -117t-48 -117t-117 -48zM736 29q53 0 89.5 36.5t36.5 89.5t-36.5 89.5t-89.5 36.5t-90 -36.5t-37 -89.5t37 -89.5t90 -36.5zM1119 29q53 0 89.5 36.5
t36.5 89.5t-36.5 89.5t-89.5 36.5t-90 -36.5t-37 -89.5t37 -89.5t90 -36.5z" />
    <glyph glyph-name="guilsinglleft" unicode="&#x2039;" horiz-adv-x="358" 
d="M278 395l-123 -158l123 -158h-55l-123 158l123 158h55z" />
    <glyph glyph-name="guilsinglright" unicode="&#x203a;" horiz-adv-x="349" 
d="M146 395l123 -158l-123 -158h-55l123 158l-123 158h55z" />
    <glyph glyph-name="fraction" unicode="&#x2044;" horiz-adv-x="665" 
d="M635 710l-536 -710h-49l536 710h49z" />
    <glyph glyph-name="Euro" unicode="&#x20ac;" horiz-adv-x="885" 
d="M584 674q-128 0 -219 -93t-91 -226q0 -15 1 -22h313l-7 -24h-304q2 -20 10 -46h277l-7 -24h-262q34 -90 113 -146.5t176 -56.5q120 0 206 77v-51q-80 -72 -210 -72q-118 0 -209.5 69t-126.5 180h-144l7 24h130q-4 16 -8 46h-105l7 24h96q-1 7 -1 22q0 152 102 258.5
t252 106.5q130 0 210 -72v-51q-86 77 -206 77z" />
    <glyph glyph-name="trademark" unicode="&#x2122;" horiz-adv-x="839" 
d="M354 710v-39h-120v-261h-35v261h-119v39h274zM724 710h35v-300h-35v232l-128 -232h-22l-129 232v-232h-35v300h35l140 -253z" />
    <glyph glyph-name="arrowleft" unicode="&#x2190;" horiz-adv-x="863" 
d="M763 383v-41h-584l139 -70v-46l-218 114v42l218 115v-47l-135 -68z" />
    <glyph glyph-name="arrowup" unicode="&#x2191;" horiz-adv-x="471" 
d="M371 532h-46l-69 136v-668h-41v668l-69 -136h-46l114 218h43z" />
    <glyph glyph-name="arrowright" unicode="&#x2192;" horiz-adv-x="863" 
d="M545 497l218 -115v-42l-218 -114v46l138 70h-583v41l580 -1l-135 68v47z" />
    <glyph glyph-name="arrowdown" unicode="&#x2193;" horiz-adv-x="471" 
d="M325 218h46l-114 -218h-43l-114 218h46l69 -136v668h41v-668z" />
    <glyph glyph-name="arrowboth" unicode="&#x2194;" horiz-adv-x="950" 
d="M632 497l218 -115v-42l-218 -114v46l138 70h-590l138 -70v-46l-218 114v43l218 114v-46l-135 -69h584l-135 68v47z" />
    <glyph glyph-name="arrowupdn" unicode="&#x2195;" horiz-adv-x="471" 
d="M257 84l68 134h46l-114 -218h-43l-114 218h46l70 -137v588l-69 -137h-47l115 218h42l114 -218h-46l-68 135v-583z" />
    <glyph glyph-name="uni2196" unicode="&#x2196;" horiz-adv-x="760" 
d="M660 145l-28 -29l-473 472l48 -144l-33 -33l-73 235l29 30l235 -73l-32 -33l-146 48z" />
    <glyph glyph-name="uni2197" unicode="&#x2197;" horiz-adv-x="760" 
d="M630 676l29 -30l-73 -235l-33 33l48 144l-473 -472l-28 29l473 473l-146 -48l-32 33z" />
    <glyph glyph-name="uni2198" unicode="&#x2198;" horiz-adv-x="760" 
d="M586 360l73 -235l-29 -30l-235 73l32 33l146 -48l-473 473l28 29l473 -472l-48 144z" />
    <glyph glyph-name="uni2199" unicode="&#x2199;" horiz-adv-x="759" 
d="M186 153l146 48l32 -33l-235 -73l-29 30l73 235l33 -33l-48 -144l473 472l28 -29z" />
    <glyph glyph-name="minus" unicode="&#x2212;" horiz-adv-x="526" 
d="M104 311h328v-46h-328v46z" />
    <glyph glyph-name="approxequal" unicode="&#x2248;" horiz-adv-x="576" 
d="M100 329q2 37 27 64t71 27q39 0 90 -38.5t82 -38.5t47.5 16.5t16.5 39.5l42 -6q-2 -37 -27 -64t-71 -27q-39 0 -90 38.5t-82 38.5q-30 0 -46.5 -17t-16.5 -39zM100 209q2 37 27 64t71 27q39 0 90 -38.5t82 -38.5t47.5 16.5t16.5 39.5l42 -6q-2 -37 -27 -64t-71 -27
q-39 0 -90 38.5t-82 38.5q-30 0 -46.5 -17t-16.5 -39z" />
    <glyph glyph-name="notequal" unicode="&#x2260;" horiz-adv-x="526" 
d="M428 321h-131l-25 -66h156v-46h-173l-42 -114h-42l42 114h-113v46h130l25 66h-155v47h173l43 114h42l-43 -114h113v-47z" />
    <glyph glyph-name="lessequal" unicode="&#x2264;" horiz-adv-x="526" 
d="M426 506v-45l-277 -120l277 -120v-44l-328 141v46zM98 36v46h328v-46h-328z" />
    <glyph glyph-name="greaterequal" unicode="&#x2265;" horiz-adv-x="528" 
d="M100 506l328 -142v-46l-328 -141v44l277 120l-277 120v45zM100 36v46h328v-46h-328z" />
    <glyph glyph-name="lozenge" unicode="&#x25ca;" horiz-adv-x="613" 
d="M329 710l184 -400l-184 -400h-45l-184 400l184 400h45zM307 -41l161 351l-161 351l-162 -351z" />
    <glyph glyph-name="i.loclTRK" horiz-adv-x="174" 
d="M83 606q-14 0 -24.5 10.5t-10.5 24.5q0 15 10.5 25.5t24.5 10.5q15 0 25.5 -10.5t10.5 -25.5q0 -14 -10.5 -24.5t-25.5 -10.5zM108 506v-506h-48v506h48z" />
    <glyph glyph-name="a.ss01" horiz-adv-x="579" 
d="M326 516q57 0 95 -17.5t56 -51t25 -69t7 -84.5v-294h-47l-1 25v15q-24 -17 -70.5 -33.5t-103.5 -16.5q-47 0 -89.5 13.5t-75 48t-32.5 85.5t32.5 85t74.5 46.5t90 12.5q57 0 104 -17t70 -34v64q0 88 -28.5 134t-113.5 46q-56 0 -110.5 -22t-87.5 -44v44q109 64 205 64z
M461 80v111q-18 17 -65.5 35t-99.5 18q-37 0 -70.5 -8.5t-60.5 -34t-27 -64.5t27 -65t60.5 -35.5t70.5 -9.5q52 0 99.5 18t65.5 35z" />
    <glyph glyph-name="aacute.ss01" horiz-adv-x="579" 
d="M430 752l-101 -138h-41l86 138h56zM326 516q57 0 95 -17.5t56 -51t25 -69t7 -84.5v-294h-47l-1 25v15q-24 -17 -70.5 -33.5t-103.5 -16.5q-47 0 -89.5 13.5t-75 48t-32.5 85.5t32.5 85t74.5 46.5t90 12.5q57 0 104 -17t70 -34v64q0 88 -28.5 134t-113.5 46
q-56 0 -110.5 -22t-87.5 -44v44q109 64 205 64zM461 80v111q-18 17 -65.5 35t-99.5 18q-37 0 -70.5 -8.5t-60.5 -34t-27 -64.5t27 -65t60.5 -35.5t70.5 -9.5q52 0 99.5 18t65.5 35z" />
    <glyph glyph-name="abreve.ss01" horiz-adv-x="579" 
d="M308 614q-67 0 -108.5 41t-41.5 97h41q0 -38 27.5 -69.5t81.5 -31.5t82 31.5t28 69.5h40q0 -56 -41.5 -97t-108.5 -41zM326 516q57 0 95 -17.5t56 -51t25 -69t7 -84.5v-294h-47l-1 25v15q-24 -17 -70.5 -33.5t-103.5 -16.5q-47 0 -89.5 13.5t-75 48t-32.5 85.5t32.5 85
t74.5 46.5t90 12.5q57 0 104 -17t70 -34v64q0 88 -28.5 134t-113.5 46q-56 0 -110.5 -22t-87.5 -44v44q109 64 205 64zM461 80v111q-18 17 -65.5 35t-99.5 18q-37 0 -70.5 -8.5t-60.5 -34t-27 -64.5t27 -65t60.5 -35.5t70.5 -9.5q52 0 99.5 18t65.5 35z" />
    <glyph glyph-name="acircumflex.ss01" horiz-adv-x="579" 
d="M309 723l-78 -109h-48l104 138h44l104 -138h-48zM326 516q57 0 95 -17.5t56 -51t25 -69t7 -84.5v-294h-47l-1 25v15q-24 -17 -70.5 -33.5t-103.5 -16.5q-47 0 -89.5 13.5t-75 48t-32.5 85.5t32.5 85t74.5 46.5t90 12.5q57 0 104 -17t70 -34v64q0 88 -28.5 134t-113.5 46
q-56 0 -110.5 -22t-87.5 -44v44q109 64 205 64zM461 80v111q-18 17 -65.5 35t-99.5 18q-37 0 -70.5 -8.5t-60.5 -34t-27 -64.5t27 -65t60.5 -35.5t70.5 -9.5q52 0 99.5 18t65.5 35z" />
    <glyph glyph-name="adieresis.ss01" horiz-adv-x="579" 
d="M236 645q-14 0 -24.5 10.5t-10.5 24.5q0 15 10.5 25.5t24.5 10.5q15 0 25.5 -10.5t10.5 -25.5q0 -14 -10.5 -24.5t-25.5 -10.5zM381 645q-14 0 -24.5 10.5t-10.5 24.5q0 15 10.5 25.5t24.5 10.5q15 0 25.5 -10.5t10.5 -25.5q0 -14 -10.5 -24.5t-25.5 -10.5zM326 516
q57 0 95 -17.5t56 -51t25 -69t7 -84.5v-294h-47l-1 25v15q-24 -17 -70.5 -33.5t-103.5 -16.5q-47 0 -89.5 13.5t-75 48t-32.5 85.5t32.5 85t74.5 46.5t90 12.5q57 0 104 -17t70 -34v64q0 88 -28.5 134t-113.5 46q-56 0 -110.5 -22t-87.5 -44v44q109 64 205 64zM461 80v111
q-18 17 -65.5 35t-99.5 18q-37 0 -70.5 -8.5t-60.5 -34t-27 -64.5t27 -65t60.5 -35.5t70.5 -9.5q52 0 99.5 18t65.5 35z" />
    <glyph glyph-name="agrave.ss01" horiz-adv-x="579" 
d="M328 614h-41l-101 138h56zM326 516q57 0 95 -17.5t56 -51t25 -69t7 -84.5v-294h-47l-1 25v15q-24 -17 -70.5 -33.5t-103.5 -16.5q-47 0 -89.5 13.5t-75 48t-32.5 85.5t32.5 85t74.5 46.5t90 12.5q57 0 104 -17t70 -34v64q0 88 -28.5 134t-113.5 46q-56 0 -110.5 -22
t-87.5 -44v44q109 64 205 64zM461 80v111q-18 17 -65.5 35t-99.5 18q-37 0 -70.5 -8.5t-60.5 -34t-27 -64.5t27 -65t60.5 -35.5t70.5 -9.5q52 0 99.5 18t65.5 35z" />
    <glyph glyph-name="amacron.ss01" horiz-adv-x="579" 
d="M410 707v-46h-203v46h203zM326 516q57 0 95 -17.5t56 -51t25 -69t7 -84.5v-294h-47l-1 25v15q-24 -17 -70.5 -33.5t-103.5 -16.5q-47 0 -89.5 13.5t-75 48t-32.5 85.5t32.5 85t74.5 46.5t90 12.5q57 0 104 -17t70 -34v64q0 88 -28.5 134t-113.5 46q-56 0 -110.5 -22
t-87.5 -44v44q109 64 205 64zM461 80v111q-18 17 -65.5 35t-99.5 18q-37 0 -70.5 -8.5t-60.5 -34t-27 -64.5t27 -65t60.5 -35.5t70.5 -9.5q52 0 99.5 18t65.5 35z" />
    <glyph glyph-name="aogonek.ss01" horiz-adv-x="579" 
d="M504 -103q35 0 68 27v-43q-30 -30 -75 -30q-52 0 -65.5 48t33.5 101h-3l-1 25v15q-24 -17 -70.5 -33.5t-103.5 -16.5q-47 0 -89.5 13.5t-75 48t-32.5 85.5t32.5 85t74.5 46.5t90 12.5q57 0 104 -17t70 -34v64q0 88 -28.5 134t-113.5 46q-56 0 -110.5 -22t-87.5 -44v44
q109 64 205 64q57 0 95 -17.5t56 -51t25 -69t7 -84.5v-294h-4q-25 -25 -32.5 -49.5t1.5 -39t30 -14.5zM461 80v111q-18 17 -65.5 35t-99.5 18q-37 0 -70.5 -8.5t-60.5 -34t-27 -64.5t27 -65t60.5 -35.5t70.5 -9.5q52 0 99.5 18t65.5 35z" />
    <glyph glyph-name="aring.ss01" horiz-adv-x="579" 
d="M309 622q-29 0 -49.5 20.5t-20.5 49.5t20.5 49.5t49.5 20.5t49 -20.5t20 -49.5t-20 -49.5t-49 -20.5zM309 732q-17 0 -29 -11.5t-12 -28.5t12 -28.5t29 -11.5t28.5 12t11.5 28t-11.5 28t-28.5 12zM326 516q57 0 95 -17.5t56 -51t25 -69t7 -84.5v-294h-47l-1 25v15
q-24 -17 -70.5 -33.5t-103.5 -16.5q-47 0 -89.5 13.5t-75 48t-32.5 85.5t32.5 85t74.5 46.5t90 12.5q57 0 104 -17t70 -34v64q0 88 -28.5 134t-113.5 46q-56 0 -110.5 -22t-87.5 -44v44q109 64 205 64zM461 80v111q-18 17 -65.5 35t-99.5 18q-37 0 -70.5 -8.5t-60.5 -34
t-27 -64.5t27 -65t60.5 -35.5t70.5 -9.5q52 0 99.5 18t65.5 35z" />
    <glyph glyph-name="atilde.ss01" horiz-adv-x="579" 
d="M226 700q-30 0 -46.5 -16.5t-16.5 -38.5l-43 6q2 37 27 64t71 27q39 0 90 -38.5t82 -38.5t47.5 16t16.5 39l42 -5q-2 -37 -27 -64t-71 -27q-39 0 -90 38t-82 38zM326 516q57 0 95 -17.5t56 -51t25 -69t7 -84.5v-294h-47l-1 25v15q-24 -17 -70.5 -33.5t-103.5 -16.5
q-47 0 -89.5 13.5t-75 48t-32.5 85.5t32.5 85t74.5 46.5t90 12.5q57 0 104 -17t70 -34v64q0 88 -28.5 134t-113.5 46q-56 0 -110.5 -22t-87.5 -44v44q109 64 205 64zM461 80v111q-18 17 -65.5 35t-99.5 18q-37 0 -70.5 -8.5t-60.5 -34t-27 -64.5t27 -65t60.5 -35.5
t70.5 -9.5q52 0 99.5 18t65.5 35z" />
    <glyph glyph-name="ae.ss01" horiz-adv-x="1006" 
d="M936 249v-14h-421q5 -98 62.5 -150t148.5 -52q97 0 183 66v-43q-31 -27 -81.5 -46.5t-107.5 -19.5q-68 0 -123 28t-88 80v-98h-47l-1 25v15q-24 -17 -70.5 -33.5t-103.5 -16.5q-47 0 -89.5 13.5t-75 48t-32.5 85.5t32.5 85t74.5 46.5t90 12.5q57 0 104 -17t70 -34v64
q0 88 -28.5 134t-113.5 46q-56 0 -110.5 -22t-87.5 -44v44q109 64 205 64q144 0 173 -123q31 57 85.5 90t123.5 33q107 0 167.5 -77t60.5 -190zM709 472q-81 0 -135 -54t-59 -144h374q-7 87 -53.5 142.5t-126.5 55.5zM461 80v111q-18 17 -65.5 35t-99.5 18q-37 0 -70.5 -8.5
t-60.5 -34t-27 -64.5t27 -65t60.5 -35.5t70.5 -9.5q52 0 99.5 18t65.5 35z" />
    <glyph glyph-name="e.ss01" horiz-adv-x="630" 
d="M560 249v-14h-421q5 -98 62.5 -150t148.5 -52q97 0 183 66v-43q-31 -27 -81.5 -46.5t-107.5 -19.5q-111 0 -182.5 72t-71.5 194q0 112 68 186t174 74q107 0 167.5 -77t60.5 -190zM333 472q-82 0 -135.5 -54.5t-58.5 -143.5h373q-6 87 -52.5 142.5t-126.5 55.5z" />
    <glyph glyph-name="eacute.ss01" horiz-adv-x="630" 
d="M453 752l-101 -138h-41l86 138h56zM560 249v-14h-421q5 -98 62.5 -150t148.5 -52q97 0 183 66v-43q-31 -27 -81.5 -46.5t-107.5 -19.5q-111 0 -182.5 72t-71.5 194q0 112 68 186t174 74q107 0 167.5 -77t60.5 -190zM333 472q-82 0 -135.5 -54.5t-58.5 -143.5h373
q-6 87 -52.5 142.5t-126.5 55.5z" />
    <glyph glyph-name="ecaron.ss01" horiz-adv-x="630" 
d="M307 614l-104 138h48l78 -109l78 109h48l-104 -138h-44zM560 249v-14h-421q5 -98 62.5 -150t148.5 -52q97 0 183 66v-43q-31 -27 -81.5 -46.5t-107.5 -19.5q-111 0 -182.5 72t-71.5 194q0 112 68 186t174 74q107 0 167.5 -77t60.5 -190zM333 472q-82 0 -135.5 -54.5
t-58.5 -143.5h373q-6 87 -52.5 142.5t-126.5 55.5z" />
    <glyph glyph-name="ecircumflex.ss01" horiz-adv-x="630" 
d="M332 723l-78 -109h-48l104 138h44l104 -138h-48zM560 249v-14h-421q5 -98 62.5 -150t148.5 -52q97 0 183 66v-43q-31 -27 -81.5 -46.5t-107.5 -19.5q-111 0 -182.5 72t-71.5 194q0 112 68 186t174 74q107 0 167.5 -77t60.5 -190zM333 472q-82 0 -135.5 -54.5
t-58.5 -143.5h373q-6 87 -52.5 142.5t-126.5 55.5z" />
    <glyph glyph-name="edieresis.ss01" horiz-adv-x="630" 
d="M258 645q-14 0 -24.5 10.5t-10.5 24.5q0 15 10.5 25.5t24.5 10.5q15 0 25.5 -10.5t10.5 -25.5q0 -14 -10.5 -24.5t-25.5 -10.5zM403 645q-14 0 -24.5 10.5t-10.5 24.5q0 15 10.5 25.5t24.5 10.5q15 0 25.5 -10.5t10.5 -25.5q0 -14 -10.5 -24.5t-25.5 -10.5zM560 249v-14
h-421q5 -98 62.5 -150t148.5 -52q97 0 183 66v-43q-31 -27 -81.5 -46.5t-107.5 -19.5q-111 0 -182.5 72t-71.5 194q0 112 68 186t174 74q107 0 167.5 -77t60.5 -190zM333 472q-82 0 -135.5 -54.5t-58.5 -143.5h373q-6 87 -52.5 142.5t-126.5 55.5z" />
    <glyph glyph-name="edotaccent.ss01" horiz-adv-x="630" 
d="M331 645q-14 0 -24.5 10.5t-10.5 24.5q0 15 10.5 25.5t24.5 10.5q15 0 25.5 -10.5t10.5 -25.5q0 -14 -10.5 -24.5t-25.5 -10.5zM560 249v-14h-421q5 -98 62.5 -150t148.5 -52q97 0 183 66v-43q-31 -27 -81.5 -46.5t-107.5 -19.5q-111 0 -182.5 72t-71.5 194q0 112 68 186
t174 74q107 0 167.5 -77t60.5 -190zM333 472q-82 0 -135.5 -54.5t-58.5 -143.5h373q-6 87 -52.5 142.5t-126.5 55.5z" />
    <glyph glyph-name="egrave.ss01" horiz-adv-x="630" 
d="M351 614h-41l-101 138h56zM560 249v-14h-421q5 -98 62.5 -150t148.5 -52q97 0 183 66v-43q-31 -27 -81.5 -46.5t-107.5 -19.5q-111 0 -182.5 72t-71.5 194q0 112 68 186t174 74q107 0 167.5 -77t60.5 -190zM333 472q-82 0 -135.5 -54.5t-58.5 -143.5h373
q-6 87 -52.5 142.5t-126.5 55.5z" />
    <glyph glyph-name="emacron.ss01" horiz-adv-x="630" 
d="M433 707v-46h-203v46h203zM560 249v-14h-421q5 -98 62.5 -150t148.5 -52q97 0 183 66v-43q-31 -27 -81.5 -46.5t-107.5 -19.5q-111 0 -182.5 72t-71.5 194q0 112 68 186t174 74q107 0 167.5 -77t60.5 -190zM333 472q-82 0 -135.5 -54.5t-58.5 -143.5h373
q-6 87 -52.5 142.5t-126.5 55.5z" />
    <glyph glyph-name="eogonek.ss01" horiz-adv-x="630" 
d="M560 249v-14h-421q5 -98 62.5 -150t148.5 -52q97 0 183 66v-43q-30 -27 -79 -46t-105 -20q-30 -37 -26 -65t34 -28q35 0 68 27v-43q-30 -30 -75 -30q-50 0 -64.5 44.5t25.5 96.5q-99 11 -160 81t-61 183q0 112 68 186t174 74q107 0 167.5 -77t60.5 -190zM333 472
q-82 0 -135.5 -54.5t-58.5 -143.5h373q-6 87 -52.5 142.5t-126.5 55.5z" />
    <glyph glyph-name="uni1EBD.ss01" horiz-adv-x="630" 
d="M249 700q-30 0 -46.5 -16.5t-16.5 -38.5l-43 6q2 37 27 64t71 27q39 0 90 -38.5t82 -38.5t47.5 16t16.5 39l42 -5q-2 -37 -27 -64t-71 -27q-39 0 -90 38t-82 38zM560 249v-14h-421q5 -98 62.5 -150t148.5 -52q97 0 183 66v-43q-31 -27 -81.5 -46.5t-107.5 -19.5
q-111 0 -182.5 72t-71.5 194q0 112 68 186t174 74q107 0 167.5 -77t60.5 -190zM333 472q-82 0 -135.5 -54.5t-58.5 -143.5h373q-6 87 -52.5 142.5t-126.5 55.5z" />
    <glyph glyph-name="g.ss01" horiz-adv-x="696" 
d="M580 506h46v-470q0 -135 -68 -205.5t-186 -70.5q-111 0 -227 68v44q107 -70 220 -70q100 0 156 58t56 176v101q-27 -66 -88.5 -106.5t-137.5 -40.5q-109 0 -185 77t-76 187q0 108 76.5 185t184.5 77q76 0 137 -40.5t89 -105.5zM357 36q90 0 153.5 64t63.5 154
q0 89 -63.5 152.5t-153.5 63.5q-91 0 -155 -63.5t-64 -152.5q0 -90 64 -154t155 -64z" />
    <glyph glyph-name="gbreve.ss01" horiz-adv-x="696" 
d="M368 614q-67 0 -108.5 41t-41.5 97h41q0 -38 27.5 -69.5t81.5 -31.5t82 31.5t28 69.5h40q0 -56 -41.5 -97t-108.5 -41zM580 506h46v-470q0 -135 -68 -205.5t-186 -70.5q-111 0 -227 68v44q107 -70 220 -70q100 0 156 58t56 176v101q-27 -66 -88.5 -106.5t-137.5 -40.5
q-109 0 -185 77t-76 187q0 108 76.5 185t184.5 77q76 0 137 -40.5t89 -105.5zM357 36q90 0 153.5 64t63.5 154q0 89 -63.5 152.5t-153.5 63.5q-91 0 -155 -63.5t-64 -152.5q0 -90 64 -154t155 -64z" />
    <glyph glyph-name="gcommaaccent.ss01" horiz-adv-x="696" 
d="M432 784l-36 -168h-57l52 168h41zM580 506h46v-470q0 -135 -68 -205.5t-186 -70.5q-111 0 -227 68v44q107 -70 220 -70q100 0 156 58t56 176v101q-27 -66 -88.5 -106.5t-137.5 -40.5q-109 0 -185 77t-76 187q0 108 76.5 185t184.5 77q76 0 137 -40.5t89 -105.5zM357 36
q90 0 153.5 64t63.5 154q0 89 -63.5 152.5t-153.5 63.5q-91 0 -155 -63.5t-64 -152.5q0 -90 64 -154t155 -64z" />
    <glyph glyph-name="gdotaccent.ss01" horiz-adv-x="696" 
d="M368 645q-14 0 -24.5 10.5t-10.5 24.5q0 15 10.5 25.5t24.5 10.5q15 0 25.5 -10.5t10.5 -25.5q0 -14 -10.5 -24.5t-25.5 -10.5zM580 506h46v-470q0 -135 -68 -205.5t-186 -70.5q-111 0 -227 68v44q107 -70 220 -70q100 0 156 58t56 176v101q-27 -66 -88.5 -106.5
t-137.5 -40.5q-109 0 -185 77t-76 187q0 108 76.5 185t184.5 77q76 0 137 -40.5t89 -105.5zM357 36q90 0 153.5 64t63.5 154q0 89 -63.5 152.5t-153.5 63.5q-91 0 -155 -63.5t-64 -152.5q0 -90 64 -154t155 -64z" />
    <glyph glyph-name="i.ss01" horiz-adv-x="202" 
d="M109 606q-14 0 -24.5 10.5t-10.5 24.5q0 15 10.5 25.5t24.5 10.5q15 0 25.5 -10.5t10.5 -25.5q0 -14 -10.5 -24.5t-25.5 -10.5zM142 506v-506h-48v460l-34 2v44h82z" />
    <glyph glyph-name="dotlessi.ss01" horiz-adv-x="202" 
d="M142 506v-506h-48v460l-34 2v44h82z" />
    <glyph glyph-name="iacute.ss01" horiz-adv-x="202" 
d="M175 752h56l-101 -138h-41zM142 506v-506h-48v460l-34 2v44h82z" />
    <glyph glyph-name="icircumflex.ss01" horiz-adv-x="202" 
d="M132 752l104 -138h-48l-78 109l-78 -109h-48l104 138h44zM60 462v44h82v-506h-48v460z" />
    <glyph glyph-name="idieresis.ss01" horiz-adv-x="202" 
d="M37 605q-14 0 -24.5 10.5t-10.5 24.5q0 15 10.5 25.5t24.5 10.5q15 0 25.5 -10.5t10.5 -25.5q0 -14 -10.5 -24.5t-25.5 -10.5zM182 605q-14 0 -24.5 10.5t-10.5 24.5q0 15 10.5 25.5t24.5 10.5q15 0 25.5 -10.5t10.5 -25.5q0 -14 -10.5 -24.5t-25.5 -10.5zM142 506v-506
h-48v460l-34 2v44h82z" />
    <glyph glyph-name="i.loclTRK.ss01" horiz-adv-x="202" 
d="M109 605q-14 0 -24.5 10.5t-10.5 24.5q0 15 10.5 25.5t24.5 10.5q15 0 25.5 -10.5t10.5 -25.5q0 -14 -10.5 -24.5t-25.5 -10.5zM142 506v-506h-48v460l-34 2v44h82z" />
    <glyph glyph-name="igrave.ss01" horiz-adv-x="202" 
d="M43 752l86 -138h-41l-101 138h56zM142 506v-506h-48v460l-34 2v44h82z" />
    <glyph glyph-name="imacron.ss01" horiz-adv-x="202" 
d="M8 707h203v-46h-203v46zM142 506v-506h-48v460l-34 2v44h82z" />
    <glyph glyph-name="iogonek.ss01" horiz-adv-x="202" 
d="M109 606q-14 0 -24.5 10.5t-10.5 24.5q0 15 10.5 25.5t24.5 10.5q15 0 25.5 -10.5t10.5 -25.5q0 -14 -10.5 -24.5t-25.5 -10.5zM137 -103q35 0 68 27v-43q-30 -30 -75 -30q-52 0 -65.5 48t33.5 101h-4v460l-34 2v44h82v-506h-4q-25 -25 -32.5 -49.5t1.5 -39t30 -14.5z
" />
    <glyph glyph-name="j.ss01" horiz-adv-x="198" 
d="M120 604q-14 0 -24.5 10.5t-10.5 24.5q0 15 10.5 25.5t24.5 10.5q15 0 25.5 -10.5t10.5 -25.5q0 -14 -10.5 -24.5t-25.5 -10.5zM157 506v-506l-77 -230h-50l79 234v456l-34 2v44h82z" />
    <glyph glyph-name="l.ss01" horiz-adv-x="212" 
d="M152 750v-750h-48v704l-34 2v44h82z" />
    <glyph glyph-name="lacute.ss01" horiz-adv-x="212" 
d="M184 996h56l-101 -138h-41zM152 750v-750h-48v704l-34 2v44h82z" />
    <glyph glyph-name="lcaron.ss01" horiz-adv-x="244" 
d="M152 750v-750h-48v704l-34 2v44h82zM235 718h57l-52 -168h-41z" />
    <glyph glyph-name="lcommaaccent.ss01" horiz-adv-x="212" 
d="M152 750v-750h-48v704l-34 2v44h82zM100 -60h57l-52 -168h-41z" />
    <glyph glyph-name="lslash.ss01" horiz-adv-x="212" 
d="M250 423v-30l-98 -74v-319h-48v283l-101 -76v30l101 76v391l-34 2v44h82v-401z" />
    </font>
</defs>
</svg>
